<?xml version="1.0" encoding="UTF-8"?>
<svg version="1.1" xmlns="http://www.w3.org/2000/svg" width="1024" height="1024">
<path d="M0 0 C0.76376953 0.00126892 1.52753906 0.00253784 2.31445312 0.00384521 C23.85009339 0.07221771 23.85009339 0.07221771 34.5 2.1875 C35.45213379 2.37586426 36.40426758 2.56422852 37.38525391 2.75830078 C77.99141218 11.03831014 114.64762833 28.11051461 144.5 57.1875 C145.28963135 57.95441162 145.28963135 57.95441162 146.09521484 58.73681641 C147.71600227 60.31791898 149.32900001 61.90640273 150.9375 63.5 C151.66404785 64.21929687 151.66404785 64.21929687 152.40527344 64.953125 C155.65235056 68.21601948 158.58031711 71.63680502 161.5 75.1875 C162.16 75.8475 162.82 76.5075 163.5 77.1875 C164.92791786 79.20877562 166.26556015 81.28232051 167.6171875 83.35546875 C168.9381922 85.34245714 170.30166202 87.30155344 171.6953125 89.23828125 C187.59875817 111.57487458 196.87818499 137.5449854 202.5 164.1875 C203.42558716 164.16393433 203.42558716 164.16393433 204.36987305 164.13989258 C225.12957577 163.68521653 243.83406252 165.41286479 263.5 172.1875 C264.46667603 172.40768799 264.46667603 172.40768799 265.45288086 172.63232422 C286.36345502 178.30324201 308.61623442 199.04071077 320.4375 216.3125 C322.24776587 219.42926074 322.24776587 219.42926074 325.5 220.1875 C325.56960938 220.8371875 325.63921875 221.486875 325.7109375 222.15625 C326.81794765 226.40892264 328.9782962 229.87575736 331.125 233.6875 C336.61393198 243.80319712 340.4459395 254.10536818 343.5 265.1875 C343.69207031 265.87392578 343.88414062 266.56035156 344.08203125 267.26757812 C349.76446824 288.76107072 347.7197348 313.8600982 342.5 335.1875 C342.19964844 336.47269531 341.89929688 337.75789063 341.58984375 339.08203125 C335.2881785 363.38845434 321.74133577 384.27372524 304.5 402.1875 C303.64728516 403.13496094 303.64728516 403.13496094 302.77734375 404.1015625 C282.457689 426.03223847 251.5462797 437.64034459 222.5 441.1875 C221.79713867 441.27547852 221.09427734 441.36345703 220.37011719 441.45410156 C195.59152837 444.30473567 170.17085283 439.09928281 147.5 429.1875 C146.63890625 428.82527344 145.7778125 428.46304687 144.890625 428.08984375 C141.84440296 426.71682031 139.67034394 425.37849169 137.4375 422.875 C136.16068896 419.21480836 136.66300774 416.96771857 137.5 413.1875 C138.88258386 410.76086619 140.24675842 408.6178003 141.875 406.375 C146.46105045 399.82098277 150.64943408 393.10252524 154.65576172 386.1784668 C157.10590175 382.05460072 159.24620135 378.65639692 163.5 376.1875 C168.48217587 375.43778817 172.32883623 377.08383968 176.8125 379.0625 C196.25815938 387.20743981 218.50240546 387.23088839 238.3125 379.9375 C260.32053772 370.63598972 276.32572359 356.56632976 286.125 334.5625 C294.09859626 314.22853931 294.96634879 294.07358127 288.5 273.1875 C288.22285156 272.27097656 287.94570313 271.35445312 287.66015625 270.41015625 C281.23403854 252.13866028 266.59451318 236.81654852 249.5 228.1875 C239.05377063 223.49391768 228.8949841 220.91594647 217.5 220.1875 C216.70464844 220.13335937 215.90929687 220.07921875 215.08984375 220.0234375 C198.91796984 219.4735438 183.67653313 223.44555611 169.375 230.79296875 C162.50552412 234.27437433 162.50552412 234.27437433 159.375 234.00390625 C156.51112487 232.9478523 154.70507608 231.44688559 152.82861328 229.07348633 C151.09569271 225.30927206 151.14262532 221.94187165 151.2421875 217.88671875 C151.24880402 217.09151321 151.25542053 216.29630768 151.26223755 215.477005 C151.2855586 212.94260245 151.32920179 210.40908748 151.375 207.875 C151.41026346 205.35173052 151.44110938 202.82851986 151.46633911 200.30513 C151.48307866 198.73895471 151.50601494 197.17282833 151.53634644 195.6068573 C151.60244678 190.70264127 151.35986218 186.02481212 150.5 181.1875 C149.84 180.8575 149.18 180.5275 148.5 180.1875 C148.70625 179.65125 148.9125 179.115 149.125 178.5625 C149.63915384 175.30619236 148.74474588 173.20109528 147.5 170.1875 C146.84 169.5275 146.18 168.8675 145.5 168.1875 C145.69207031 167.51976562 145.88414062 166.85203125 146.08203125 166.1640625 C146.73561548 161.50956545 144.89269578 157.86009387 143.1875 153.5625 C142.82648193 152.63896729 142.46546387 151.71543457 142.09350586 150.76391602 C134.08328481 130.80053074 123.2648139 114.72462724 108.5 99.1875 C107.93023438 98.55328125 107.36046875 97.9190625 106.7734375 97.265625 C100.13702139 90.11871534 91.58442877 84.57711918 83.5 79.1875 C82.84 79.5175 82.18 79.8475 81.5 80.1875 C81.5 79.1975 81.5 78.2075 81.5 77.1875 C80.86191406 76.94515625 80.22382812 76.7028125 79.56640625 76.453125 C77.1140348 75.44093602 74.73503011 74.37042335 72.33984375 73.234375 C33.48199165 54.9168155 -9.84025475 51.1118448 -50.89819336 65.19970703 C-69.04441787 71.86495822 -84.47154935 81.96133003 -98.5 95.1875 C-99.22703125 95.83847656 -99.9540625 96.48945313 -100.703125 97.16015625 C-124.2717185 119.16033616 -138.36962657 153.44276277 -142.56640625 184.90234375 C-143.69493631 188.87344743 -145.40362597 190.53136872 -148.5 193.1875 C-148.83 193.5175 -149.16 193.8475 -149.5 194.1875 C-154.88970698 194.7264707 -159.11780595 193.82317319 -164.3125 192.3125 C-193.46537703 183.91471987 -225.77092923 188.11132439 -252.5 202.1875 C-260.99740936 207.1246575 -268.4184565 213.41119544 -275.5 220.1875 C-276.18578125 220.81011719 -276.8715625 221.43273437 -277.578125 222.07421875 C-297.45800282 240.74095442 -306.76056727 268.57141819 -308.5 295.1875 C-308.60634766 296.68023438 -308.60634766 296.68023438 -308.71484375 298.203125 C-309.64009089 324.70220312 -299.93045939 354.17837715 -282.5 374.1875 C-280.54262678 376.2375061 -278.5303574 378.20920304 -276.5 380.1875 C-276.5 380.8475 -276.5 381.5075 -276.5 382.1875 C-275.63181641 382.57035156 -275.63181641 382.57035156 -274.74609375 382.9609375 C-272.27307534 384.3114206 -270.58958354 385.85934081 -268.5625 387.8125 C-263.03125218 392.81050661 -256.9708777 396.52264364 -250.5 400.1875 C-249.47648437 400.77402344 -248.45296875 401.36054687 -247.3984375 401.96484375 C-191.10919675 432.16381598 -110.18509293 429.33004336 -50.546875 411.78125 C-19.43826862 402.18012168 15.51204567 385.07971537 31.81567383 355.49194336 C38.23757165 343.29083061 40.81834451 330.80524352 37.83984375 317.1640625 C35.83877006 311.67193817 32.54225981 307.11590939 28.98828125 302.51171875 C27.39531866 300.02402127 26.88585369 298.09426448 26.5 295.1875 C27.16 295.1875 27.82 295.1875 28.5 295.1875 C28.685625 294.506875 28.87125 293.82625 29.0625 293.125 C32.08877579 286.9408712 37.66130204 282.6376397 43.5 279.1875 C48.21442165 277.61602612 51.91350334 277.41112929 56.4375 279.625 C66.84403014 288.33250481 73.72454018 299.5830391 75.5 313.1875 C75.644375 314.15300781 75.78875 315.11851562 75.9375 316.11328125 C79.54742919 348.11379939 63.83877425 377.91708222 44.5 402.1875 C30.62809161 419.40729813 14.59079688 433.06389999 -4.5 444.1875 C-5.40226318 444.72673096 -5.40226318 444.72673096 -6.32275391 445.27685547 C-38.79206392 464.67093673 -76.11088163 474.26052573 -113.5 478.1875 C-114.38381348 478.2817627 -115.26762695 478.37602539 -116.17822266 478.47314453 C-125.06857839 479.32136246 -133.95228687 479.43072985 -142.875 479.4375 C-144.08553543 479.43851212 -144.08553543 479.43851212 -145.32052612 479.43954468 C-186.56138103 479.38532906 -228.04719225 473.00515047 -265.5 455.1875 C-266.25361816 454.82930176 -267.00723633 454.47110352 -267.78369141 454.10205078 C-282.24038914 447.10584158 -295.69229908 438.2255091 -307.38671875 427.1796875 C-309.32133632 425.35592602 -311.31900095 423.68332305 -313.375 422 C-318.46473063 417.59863458 -322.65140759 412.34323675 -326.9609375 407.19921875 C-329.33961094 404.29132622 -329.33961094 404.29132622 -331.5 402.1875 C-335.86267094 395.81215355 -339.66422983 389.19888691 -343.140625 382.3046875 C-344.38693756 379.87660675 -344.38693756 379.87660675 -347.5 379.1875 C-347.60828125 378.17300781 -347.7165625 377.15851563 -347.828125 376.11328125 C-348.50691885 372.14707301 -349.64755221 369.05484788 -351.25 365.375 C-368.78462482 323.40106129 -367.59717521 274.91893813 -350.59375 233.05859375 C-342.93145102 214.90304492 -331.75965227 198.71328906 -318.5 184.1875 C-318.0457666 183.68798828 -317.5915332 183.18847656 -317.12353516 182.67382812 C-297.44116469 161.33333762 -272.11845895 146.57830984 -244.5 138.1875 C-243.55640625 137.88972656 -242.6128125 137.59195313 -241.640625 137.28515625 C-230.03639151 133.83478505 -218.15192801 133.05239267 -206.125 132.5 C-205.11477783 132.45149902 -204.10455566 132.40299805 -203.0637207 132.35302734 C-197.07986215 132.12122865 -191.43362712 132.37055134 -185.5 133.1875 C-185.3453125 132.17429687 -185.3453125 132.17429687 -185.1875 131.140625 C-184.35137204 127.54907534 -182.99030764 124.29440558 -181.5 120.9375 C-181.19094727 120.24076172 -180.88189453 119.54402344 -180.56347656 118.82617188 C-158.85877247 70.68432077 -119.82900031 32.01012603 -70.27734375 12.94775391 C-55.63483996 7.55861686 -40.96147716 3.36678326 -25.5 1.1875 C-24.83967773 1.08655029 -24.17935547 0.98560059 -23.49902344 0.8815918 C-15.71412916 -0.16509335 -7.83981583 -0.0133172 0 0 Z " fill="#082645" transform="translate(510.5,243.8125)"/>
<path d="M0 0 C7.01983771 5.86969481 10.87073151 13.50689766 11.88671875 22.546875 C12.33719264 29.88316399 11.88946306 37.80792046 7.07421875 43.734375 C5.38671875 45.109375 5.38671875 45.109375 3.07421875 45.734375 C1.24802912 45.53146504 -0.57773151 45.31752244 -2.39453125 45.04296875 C-11.96129277 43.8766506 -20.3711067 44.0787698 -28.92578125 48.734375 C-30.06273437 49.353125 -30.06273437 49.353125 -31.22265625 49.984375 C-42.95863772 57.10690169 -50.78030817 69.30161807 -57.92578125 80.734375 C-57.92578125 81.394375 -57.92578125 82.054375 -57.92578125 82.734375 C-58.58578125 82.734375 -59.24578125 82.734375 -59.92578125 82.734375 C-60.15523437 83.38277344 -60.3846875 84.03117188 -60.62109375 84.69921875 C-62.36694506 88.76067524 -64.56574976 92.48745473 -66.80078125 96.296875 C-67.28764404 97.12896484 -67.77450684 97.96105469 -68.27612305 98.81835938 C-69.30617468 100.57541919 -70.33803275 102.3314211 -71.37158203 104.08642578 C-72.86923005 106.63802654 -74.34969923 109.19894675 -75.828125 111.76171875 C-85.52378056 128.42137578 -96.44642485 143.91803469 -109.92578125 157.734375 C-110.64765625 158.518125 -111.36953125 159.301875 -112.11328125 160.109375 C-117.87745872 166.21262173 -124.36842635 170.97825704 -131.30664062 175.64453125 C-132.67458083 176.56529196 -134.0284319 177.50693278 -135.37890625 178.453125 C-150.93306658 188.67753808 -171.41669115 194.10732828 -189.86328125 191.109375 C-192.94690694 190.31178876 -194.84457309 189.29333806 -197.05078125 186.984375 C-198.92578125 183.734375 -198.92578125 183.734375 -198.92578125 180.671875 C-196.5899191 173.81027994 -193.38476179 171.47414476 -187.23828125 168.171875 C-172.54108563 159.89849388 -149.6339617 146.15073589 -141.92578125 130.734375 C-141.26578125 130.734375 -140.60578125 130.734375 -139.92578125 130.734375 C-139.67828125 130.17363281 -139.43078125 129.61289062 -139.17578125 129.03515625 C-137.70980225 126.33683866 -135.92893963 124.25054662 -133.92578125 121.921875 C-128.36167689 115.22169145 -123.62950012 108.05374121 -118.92578125 100.734375 C-118.39170654 99.91066406 -117.85763184 99.08695313 -117.30737305 98.23828125 C-112.98334015 91.52124339 -108.94504006 84.67277485 -104.98828125 77.734375 C-103.67160766 75.44340602 -102.35413221 73.15292304 -101.03515625 70.86328125 C-100.69881668 70.27922012 -100.36247711 69.695159 -100.01594543 69.09339905 C-72.3509977 21.07308149 -72.3509977 21.07308149 -59.92578125 9.734375 C-59.26578125 9.734375 -58.60578125 9.734375 -57.92578125 9.734375 C-57.59578125 8.744375 -57.26578125 7.754375 -56.92578125 6.734375 C-54.95407813 5.14116846 -53.02120939 3.70769311 -50.92578125 2.296875 C-50.33853271 1.89726563 -49.75128418 1.49765625 -49.14624023 1.0859375 C-33.71498742 -9.20296996 -15.60843675 -11.0049013 0 0 Z " fill="#092745" transform="translate(713.92578125,533.265625)"/>
<path d="M0 0 C6.65209496 5.3641644 10.46160522 11.99945237 11.8125 20.375 C12.55780148 28.5733163 9.9282428 35.9803215 4.8125 42.375 C-0.34249509 47.61998253 -5.54058865 50.92889464 -13.01953125 51.84375 C-22.58968152 51.91888366 -29.90435606 51.17603194 -37.2421875 44.5078125 C-43.8260796 37.48681553 -46.38527794 29.94745207 -46.1875 20.375 C-44.95858677 12.28564882 -41.35838808 5.85074007 -35.078125 0.6171875 C-23.99067288 -7.29695936 -11.32777973 -7.78244409 0 0 Z " fill="#0B2744" transform="translate(554.1875,438.625)"/>
<path d="M0 0 C3.375 1.75 3.375 1.75 4.375 4.75 C5.035 4.75 5.695 4.75 6.375 4.75 C7.890625 6.32421875 7.890625 6.32421875 9.625 8.4375 C11.87575728 11.10349133 14.07549545 13.46010091 16.8125 15.625 C17.658125 16.32625 18.50375 17.0275 19.375 17.75 C19.375 18.41 19.375 19.07 19.375 19.75 C20.035 19.75 20.695 19.75 21.375 19.75 C22.84765625 21.0703125 22.84765625 21.0703125 24.4375 22.875 C24.96472656 23.45507812 25.49195313 24.03515625 26.03515625 24.6328125 C27.79365904 27.41155451 28.25186193 29.4677335 28.375 32.75 C27.171875 34.85546875 27.171875 34.85546875 25.125 36.9375 C24.31160156 37.77539062 23.49820313 38.61328125 22.66015625 39.4765625 C22.16402832 39.96930664 21.66790039 40.46205078 21.15673828 40.96972656 C18.97369602 43.15097405 16.83073054 45.3693458 14.68359375 47.5859375 C12.9780687 49.32959953 11.2710194 51.07177187 9.5625 52.8125 C8.7262207 53.67061279 7.88994141 54.52872559 7.02832031 55.4128418 C6.2287793 56.21633057 5.42923828 57.01981934 4.60546875 57.84765625 C3.52881958 58.93832397 3.52881958 58.93832397 2.43041992 60.05102539 C0.29550391 61.8157101 -1.01042703 62.1049655 -3.625 62.75 C-3.955 63.74 -4.285 64.73 -4.625 65.75 C-4.625 64.76 -4.625 63.77 -4.625 62.75 C-5.16487549 62.69618164 -5.70475098 62.64236328 -6.26098633 62.58691406 C-9.72496999 61.36058586 -11.90922652 58.9136227 -14.44921875 56.359375 C-14.99608841 55.81774719 -15.54295807 55.27611938 -16.10639954 54.71807861 C-17.25903458 53.57185859 -18.407816 52.42175211 -19.55297852 51.26806641 C-21.30459801 49.50794036 -23.07403735 47.76726277 -24.84570312 46.02734375 C-25.96467307 44.90998605 -27.08254922 43.79153169 -28.19921875 42.671875 C-28.72835373 42.153974 -29.25748871 41.636073 -29.80265808 41.10247803 C-32.72025715 38.12873941 -34.42482225 35.98343946 -34.625 31.75 C-31.90876178 25.1253285 -26.13060775 20.04990449 -21.0859375 15.171875 C-18.27794584 12.40845463 -15.71972306 9.4920134 -13.15234375 6.5078125 C-5.7692217 -1.98938679 -5.7692217 -1.98938679 0 0 Z " fill="#0A2643" transform="translate(452.625,430.25)"/>
<path d="M0 0 C0.33 0 0.66 0 1 0 C1 6.27 1 12.54 1 19 C1.66 19 2.32 19 3 19 C3.09796875 20.16273438 3.1959375 21.32546875 3.296875 22.5234375 C4.14212689 31.79387915 5.35006597 40.74595674 7.67871094 49.77099609 C8.96783429 54.96282466 9.15774518 59.64718032 9 65 C-2.1183542 48.3224687 -0.35107971 19.17975469 0 0 Z " fill="#2A2A30" transform="translate(147,533)"/>
<path d="M0 0 C18.15 0 36.3 0 55 0 C55 0.33 55 0.66 55 1 C46.26405034 3.24181193 37.83384691 3.30654849 28.87695312 3.26074219 C26.37345325 3.24999336 23.87066601 3.26069964 21.3671875 3.2734375 C19.75260261 3.27211622 18.13801815 3.26955448 16.5234375 3.265625 C15.78676849 3.26967346 15.05009949 3.27372192 14.29110718 3.27789307 C9.23788936 3.23288995 4.86426056 2.37961143 0 1 C0 0.67 0 0.34 0 0 Z " fill="#2A292A" transform="translate(340,720)"/>
<path d="M0 0 C0.33 0.66 0.66 1.32 1 2 C1.66 2 2.32 2 3 2 C3.66340408 4.20311866 4.30451982 6.41294826 4.9375 8.625 C5.29714844 9.85476563 5.65679688 11.08453125 6.02734375 12.3515625 C9.05783149 25.10229302 8.12421605 38.85873489 8.0625 51.875 C8.05747112 53.73828004 8.05291069 55.6015614 8.04882812 57.46484375 C8.03794131 61.97659595 8.02075454 66.48828285 8 71 C6 69 6 69 5.78881836 65.50341797 C5.79592675 63.99959509 5.81369338 62.49579979 5.83984375 60.9921875 C5.84504532 60.19273712 5.85024689 59.39328674 5.85560608 58.5696106 C5.87344995 56.00455772 5.90457353 53.43990024 5.9375 50.875 C5.96525101 48.33155939 5.99001144 45.78818343 6.00868225 43.24465942 C6.02078818 41.66182194 6.03823736 40.07901283 6.06199646 38.49630737 C6.10583997 33.5707578 5.86211792 28.85798213 5 24 C4.34 23.67 3.68 23.34 3 23 C3.309375 22.195625 3.309375 22.195625 3.625 21.375 C4.13915384 18.11869236 3.24474588 16.01359528 2 13 C1.34 12.34 0.68 11.68 0 11 C0.32441604 9.33157466 0.65939189 7.66519519 1 6 C0.61666338 2.77888408 0.61666338 2.77888408 0 0 Z " fill="#474B50" transform="translate(656,401)"/>
<path d="M0 0 C3.25 1.875 3.25 1.875 4.25 4.875 C4.91 4.875 5.57 4.875 6.25 4.875 C7.765625 6.44921875 7.765625 6.44921875 9.5 8.5625 C11.75075728 11.22849133 13.95049545 13.58510091 16.6875 15.75 C17.533125 16.45125 18.37875 17.1525 19.25 17.875 C19.25 18.535 19.25 19.195 19.25 19.875 C19.91 19.875 20.57 19.875 21.25 19.875 C22.95680947 21.50053283 24.62660195 23.16615995 26.25 24.875 C25.92 25.535 25.59 26.195 25.25 26.875 C21.91765426 25.42258264 19.70774394 23.5899914 17.140625 21.03125 C16.00947266 19.90396484 16.00947266 19.90396484 14.85546875 18.75390625 C14.07816406 17.96886719 13.30085938 17.18382812 12.5 16.375 C11.70722656 15.58996094 10.91445313 14.80492187 10.09765625 13.99609375 C9.34871094 13.24457031 8.59976562 12.49304688 7.828125 11.71875 C7.14137695 11.02974609 6.45462891 10.34074219 5.74707031 9.63085938 C4.25 7.875 4.25 7.875 4.25 5.875 C3.610625 5.606875 2.97125 5.33875 2.3125 5.0625 C0.25 3.875 0.25 3.875 -0.75 0.875 C-5.82280388 2.14320097 -7.61576089 3.80048916 -10.75 7.875 C-12.8671875 8.52734375 -12.8671875 8.52734375 -14.75 8.875 C-6.19306876 -1.85792063 -6.19306876 -1.85792063 0 0 Z " fill="#282A2F" transform="translate(452.75,430.125)"/>
<path d="M0 0 C-2.72584824 1.44004174 -5.363405 2.49803053 -8.31640625 3.375 C-18.82759313 6.61566298 -28.44307607 10.39771307 -38.04516602 15.79882812 C-38.78565186 16.21455078 -39.5261377 16.63027344 -40.2890625 17.05859375 C-40.93568848 17.43298584 -41.58231445 17.80737793 -42.24853516 18.19311523 C-44 19 -44 19 -47 19 C-42.77153788 14.09743522 -38.0154666 11.69663911 -32.1875 9 C-31.26130859 8.56647217 -30.33511719 8.13294434 -29.38085938 7.6862793 C-7.63710116 -2.27088046 -7.63710116 -2.27088046 0 0 Z " fill="#282A31" transform="translate(477,303)"/>
<path d="M0 0 C3.0828744 1.04790687 4.00241055 2.00379027 5.78125 4.80078125 C6.3484375 5.95964844 6.915625 7.11851562 7.5 8.3125 C8.35078125 10.00826172 8.35078125 10.00826172 9.21875 11.73828125 C14.00370137 22.68636947 15.56369485 32.38606292 15.25 44.3125 C15.22986466 45.65036329 15.21162655 46.98825653 15.1953125 48.32617188 C15.14873629 51.55157429 15.08334851 54.7753745 15 58 C14.67 58 14.34 58 14 58 C13.97421875 56.68128906 13.9484375 55.36257813 13.921875 54.00390625 C13.42079715 36.2198044 11.19956816 18.65478693 0.953125 3.59375 C0 2 0 2 0 0 Z " fill="#34373E" transform="translate(790,497)"/>
<path d="M0 0 C0.66 0.33 1.32 0.66 2 1 C-0.75722429 4.32307255 -4.44953904 5.95105894 -8.25 7.8125 C-8.9507666 8.15853271 -9.6515332 8.50456543 -10.37353516 8.86108398 C-15.30673533 11.26031778 -20.2960933 13.48992209 -25.375 15.5625 C-26.32874512 15.95755737 -26.32874512 15.95755737 -27.30175781 16.3605957 C-28.84414054 16.97075286 -30.42040046 17.49393527 -32 18 C-32.66 17.67 -33.32 17.34 -34 17 C-33.67 16.34 -33.34 15.68 -33 15 C-32.01 15 -31.02 15 -30 15 C-29.67 14.01 -29.34 13.02 -29 12 C-25.63434498 10.28417587 -23.03117679 9.12427382 -19.27734375 8.671875 C-14.99281707 7.7935215 -11.58108991 5.93087792 -7.75 3.875 C-5.18718586 2.50173579 -2.64101516 1.22576264 0 0 Z " fill="#27282D" transform="translate(500,688)"/>
<path d="M0 0 C5.06146097 0.65046888 9.32433934 2.8203292 13.875 5 C14.70692871 5.39646729 15.53885742 5.79293457 16.39599609 6.20141602 C21.94294048 8.89121271 27.33332258 11.77525713 32.625 14.9375 C33.25776855 15.31455078 33.89053711 15.69160156 34.54248047 16.08007812 C38.86771931 18.73543862 38.86771931 18.73543862 40 21 C34.85994774 20.45145687 31.00151565 17.92230162 26.625 15.375 C18.59849195 10.79855458 10.43659336 6.75789262 2 3 C2 2.34 2 1.68 2 1 C1.34 0.67 0.68 0.34 0 0 Z " fill="#23262D" transform="translate(588,259)"/>
<path d="M0 0 C0 3.66625421 -0.8873847 4.53412367 -3.046875 7.43359375 C-7.85500065 14.09500247 -11.95330556 21.14019168 -16.1015625 28.22460938 C-16.69195313 29.21396484 -17.28234375 30.20332031 -17.890625 31.22265625 C-18.68001465 32.56469116 -18.68001465 32.56469116 -19.48535156 33.93383789 C-21 36 -21 36 -24 37 C-22.72538634 33.6308219 -21.27486167 30.57784607 -19.42578125 27.48828125 C-18.92618896 26.65216309 -18.42659668 25.81604492 -17.91186523 24.95458984 C-17.38407471 24.0827002 -16.85628418 23.21081055 -16.3125 22.3125 C-15.77375244 21.41998535 -15.23500488 20.5274707 -14.67993164 19.60791016 C-4.64611929 3.09741286 -4.64611929 3.09741286 0 0 Z " fill="#25272E" transform="translate(643,558)"/>
<path d="M0 0 C0 4.11966444 -2.15840542 6.36653983 -4.5 9.5625 C-7.71407904 13.41729154 -7.71407904 13.41729154 -9 18 C-9.66 18 -10.32 18 -11 18 C-11.24492188 18.68449219 -11.48984375 19.36898437 -11.7421875 20.07421875 C-13.22754063 23.52927929 -15.12405162 26.6413857 -17.125 29.8125 C-17.49753906 30.40998047 -17.87007812 31.00746094 -18.25390625 31.62304688 C-19.1657048 33.08426251 -20.08235976 34.54244585 -21 36 C-21.625 34.1875 -21.625 34.1875 -22 32 C-21.01 30.515 -21.01 30.515 -20 29 C-19.34 29 -18.68 29 -18 29 C-17.89800293 28.11538086 -17.79600586 27.23076172 -17.69091797 26.31933594 C-16.96347509 22.82452554 -15.92448147 20.83243362 -13.9453125 17.890625 C-13.33042969 16.97152344 -12.71554687 16.05242188 -12.08203125 15.10546875 C-11.43621094 14.16316406 -10.79039062 13.22085938 -10.125 12.25 C-9.48691406 11.29222656 -8.84882812 10.33445312 -8.19140625 9.34765625 C-3.41363478 2.27575652 -3.41363478 2.27575652 0 0 Z " fill="#2A2C32" transform="translate(665,598)"/>
<path d="M0 0 C0.33 0 0.66 0 1 0 C1.02900455 3.6041498 1.04680018 7.20826962 1.0625 10.8125 C1.07087891 11.83666016 1.07925781 12.86082031 1.08789062 13.91601562 C1.09111328 14.89892578 1.09433594 15.88183594 1.09765625 16.89453125 C1.10289307 17.80050049 1.10812988 18.70646973 1.11352539 19.63989258 C1 22 1 22 0 25 C0.66 25.33 1.32 25.66 2 26 C-0.92480409 31.94019945 -3.59989278 36.10689944 -9 40 C-9 36.23619507 -7.7677646 34.12985062 -6.125 30.75 C-2.43209604 23.15011069 -0.71914176 16.42944644 -0.375 8.0625 C-0.33632813 7.28326172 -0.29765625 6.50402344 -0.2578125 5.70117188 C-0.16455873 3.80112621 -0.08124038 1.90059722 0 0 Z " fill="#303A45" transform="translate(550,565)"/>
<path d="M0 0 C0.66 0.99 1.32 1.98 2 3 C1.67 3.99 1.34 4.98 1 6 C2.3303125 6.2784375 2.3303125 6.2784375 3.6875 6.5625 C7.59113977 8.25653235 8.55160512 9.86246056 10.7734375 13.32421875 C12.45069801 15.61576256 14.53028355 16.66501814 17 18 C17.66 18.99 18.32 19.98 19 21 C18.34 21.99 17.68 22.98 17 24 C14.17113057 21.28737936 11.36503026 18.55230376 8.5625 15.8125 C7.76005859 15.04357422 6.95761719 14.27464844 6.13085938 13.48242188 C5.36708984 12.73154297 4.60332031 11.98066406 3.81640625 11.20703125 C3.10943604 10.5210083 2.40246582 9.83498535 1.67407227 9.12817383 C-0.24065469 6.69406637 -0.74174445 5.06579436 -1 2 C-0.67 1.34 -0.34 0.68 0 0 Z " fill="#272D35" transform="translate(419,460)"/>
<path d="M0 0 C1.765625 1.60546875 1.765625 1.60546875 3 3 C-0.12290635 2.51421457 -2.99580359 2.0013988 -6 1 C-14.32774415 0.4037648 -21.03856553 -0.01870857 -28 5 C-28.66 4.67 -29.32 4.34 -30 4 C-23.12203358 -5.06641029 -9.35468435 -4.40540367 0 0 Z " fill="#292C34" transform="translate(550,436)"/>
<path d="M0 0 C10.43446345 5.21723172 20.6966757 10.94069362 30 18 C29.67 18.99 29.34 19.98 29 21 C28.05640625 20.34773438 27.1128125 19.69546875 26.140625 19.0234375 C18.33218515 13.68710866 10.61749525 8.94767939 2 5 C2 4.34 2 3.68 2 3 C0.68 2.34 -0.64 1.68 -2 1 C-1.34 0.67 -0.68 0.34 0 0 Z " fill="#323439" transform="translate(776,416)"/>
<path d="M0 0 C2.43618715 2.21835611 3.88414616 4.37910347 5.375 7.30859375 C6.01695312 8.55286133 6.01695312 8.55286133 6.671875 9.82226562 C7.11015625 10.68529297 7.5484375 11.54832031 8 12.4375 C8.87167182 14.14623314 9.74656867 15.85332571 10.625 17.55859375 C11.00914062 18.31454834 11.39328125 19.07050293 11.7890625 19.84936523 C12.96856971 22.0694225 12.96856971 22.0694225 14.66796875 24.13696289 C16 26 16 26 15.6875 28.25 C15.460625 28.8275 15.23375 29.405 15 30 C14.38511719 29.03578125 13.77023438 28.0715625 13.13671875 27.078125 C12.32039403 25.80203118 11.50398324 24.52599241 10.6875 23.25 C10.28337891 22.61578125 9.87925781 21.9815625 9.46289062 21.328125 C6.05328959 15.32071368 6.05328959 15.32071368 1 11 C0.5859375 8.49609375 0.5859375 8.49609375 0.375 5.4375 C0.30023438 4.42558594 0.22546875 3.41367187 0.1484375 2.37109375 C0.09945312 1.58863281 0.05046875 0.80617188 0 0 Z " fill="#292A2F" transform="translate(162,612)"/>
<path d="M0 0 C-2.8320775 0.96218017 -5.66556127 1.9198208 -8.5 2.875 C-9.29148437 3.14441406 -10.08296875 3.41382813 -10.8984375 3.69140625 C-24.65671934 8.31509113 -24.65671934 8.31509113 -31.5 8.125 C-32.3559375 8.10695313 -33.211875 8.08890625 -34.09375 8.0703125 C-34.7228125 8.04710937 -35.351875 8.02390625 -36 8 C-36 7.67 -36 7.34 -36 7 C-32.37628677 6.0367574 -28.75080682 5.080329 -25.125 4.125 C-24.11179687 3.85558594 -23.09859375 3.58617187 -22.0546875 3.30859375 C-4.17313508 -1.39104503 -4.17313508 -1.39104503 0 0 Z " fill="#323338" transform="translate(465,707)"/>
<path d="M0 0 C3.92498807 2.04410106 5.8373421 3.7669312 7.89453125 7.67578125 C8.37470703 8.58650391 8.85488281 9.49722656 9.34960938 10.43554688 C9.83236328 11.38494141 10.31511719 12.33433594 10.8125 13.3125 C11.31458984 14.25029297 11.81667969 15.18808594 12.33398438 16.15429688 C16.74183537 24.66414798 16.74183537 24.66414798 16 30 C13.95764345 27.95764345 13.18738809 26.49684917 12.01171875 23.89453125 C11.63466797 23.07533203 11.25761719 22.25613281 10.86914062 21.41210938 C10.09074377 19.6996363 9.31464324 17.98611729 8.54101562 16.27148438 C6.69275443 12.26535478 4.82562636 8.57363576 2.20703125 5.01171875 C0 2 0 2 0 0 Z " fill="#23262C" transform="translate(831,464)"/>
<path d="M0 0 C-3.28443823 3.28443823 -7.64356994 3.08642344 -12.125 3.6875 C-13.59960693 3.889198 -13.59960693 3.889198 -15.10400391 4.0949707 C-23.5760302 5.14864026 -31.52926415 5.00726515 -40 4 C-40 3.67 -40 3.34 -40 3 C-39.37134033 2.9498877 -38.74268066 2.89977539 -38.0949707 2.84814453 C-22.19143714 1.61611932 -22.19143714 1.61611932 -6.42578125 -0.73046875 C-3.96722369 -1.00364181 -2.33187513 -0.77001029 0 0 Z " fill="#36373D" transform="translate(432,664)"/>
<path d="M0 0 C1.11707396 3.35122189 0.89692857 4.07711182 -0.14453125 7.31640625 C-0.54188477 8.58774414 -0.54188477 8.58774414 -0.94726562 9.88476562 C-1.23279297 10.76841797 -1.51832031 11.65207031 -1.8125 12.5625 C-3.97571496 19.32700044 -5.74945477 26.00426424 -7 33 C-7.33 33 -7.66 33 -8 33 C-9.85696783 25.92095136 -7.71359308 19.99098661 -5.6875 13.125 C-5.20506836 11.39636719 -5.20506836 11.39636719 -4.71289062 9.6328125 C-2.91762209 3.38070688 -2.91762209 3.38070688 -2 1 C-1.34 0.67 -0.68 0.34 0 0 Z " fill="#242429" transform="translate(375,393)"/>
<path d="M0 0 C0.33 0 0.66 0 1 0 C1.02480683 5.01708622 1.04291052 10.03413635 1.05493164 15.05126953 C1.05994564 16.75635399 1.0667585 18.46143418 1.07543945 20.16650391 C1.08763385 22.62403419 1.09325775 25.08150738 1.09765625 27.5390625 C1.10281754 28.29555084 1.10797882 29.05203918 1.11329651 29.83145142 C1.1137333 33.99682563 0.81657038 37.91432259 0 42 C-0.66 42 -1.32 42 -2 42 C-2.33 43.32 -2.66 44.64 -3 46 C-2.85584802 44.1873655 -2.70957364 42.37489978 -2.5625 40.5625 C-2.48128906 39.55316406 -2.40007813 38.54382813 -2.31640625 37.50390625 C-2.08657935 34.95878611 -1.81050128 32.44099575 -1.5 29.90625 C-0.82449153 23.93263588 -0.64886229 17.94226797 -0.4375 11.9375 C-0.39431641 10.78572266 -0.35113281 9.63394531 -0.30664062 8.44726562 C-0.20149148 5.63160509 -0.09934607 2.81587024 0 0 Z " fill="#16151A" transform="translate(855,528)"/>
<path d="M0 0 C1.08861328 -0.00580078 1.08861328 -0.00580078 2.19921875 -0.01171875 C7.13074827 -0.00292814 11.86769806 0.42910629 16.75 1.125 C16.75 1.785 16.75 2.445 16.75 3.125 C12.97337772 4.09613144 10.52567902 3.89135937 6.75 3.125 C5.13038502 3.04850219 3.50810555 3.01688319 1.88671875 3.02734375 C1.00048828 3.03056641 0.11425781 3.03378906 -0.79882812 3.03710938 C-2.1668457 3.04967773 -2.1668457 3.04967773 -3.5625 3.0625 C-4.49384766 3.06701172 -5.42519531 3.07152344 -6.38476562 3.07617188 C-8.67324373 3.08790766 -10.96158808 3.10432637 -13.25 3.125 C-12.25 1.125 -12.25 1.125 -10.42675781 0.50830078 C-6.96693159 -0.10093286 -3.50098433 -0.01826601 0 0 Z " fill="#2B2B30" transform="translate(702.25,574.875)"/>
<path d="M0 0 C0.66 0.33 1.32 0.66 2 1 C-1.0282911 4.19452188 -4.26283721 6.77768576 -7.8125 9.375 C-12.37915362 12.75667129 -16.74885714 16.23194156 -21 20 C-21.66 19.67 -22.32 19.34 -23 19 C-16.74229119 10.88189127 -8.52491248 5.52967296 0 0 Z " fill="#23272F" transform="translate(406,274)"/>
<path d="M0 0 C5.10648837 0.6013629 9.21387211 2.94098394 13.6875 5.3125 C14.45900391 5.70373047 15.23050781 6.09496094 16.02539062 6.49804688 C16.76337891 6.88669922 17.50136719 7.27535156 18.26171875 7.67578125 C18.93162842 8.02552002 19.60153809 8.37525879 20.29174805 8.7355957 C22.33328943 10.24669229 23.04029185 11.67731672 24 14 C22.68 14 21.36 14 20 14 C19.67 13.01 19.34 12.02 19 11 C16.81528247 9.94904662 16.81528247 9.94904662 14 9 C12.73783051 8.43699838 11.48166036 7.86043172 10.23046875 7.2734375 C9.56982422 6.9640625 8.90917969 6.6546875 8.22851562 6.3359375 C7.55498047 6.01882813 6.88144531 5.70171875 6.1875 5.375 C5.49462891 5.05015625 4.80175781 4.7253125 4.08789062 4.390625 C2.39133977 3.59500115 0.69558835 2.79767301 -1 2 C-0.67 1.34 -0.34 0.68 0 0 Z " fill="#292D35" transform="translate(573,310)"/>
<path d="M0 0 C0.66 0.33 1.32 0.66 2 1 C1.23883449 2.15227823 0.46567307 3.2966386 -0.3125 4.4375 C-0.74175781 5.07558594 -1.17101562 5.71367188 -1.61328125 6.37109375 C-3 8 -3 8 -6 9 C-6.309375 9.66 -6.61875 10.32 -6.9375 11 C-8 13 -8 13 -10.125 13.75 C-11.053125 13.87375 -11.053125 13.87375 -12 14 C-12 16.64 -12 19.28 -12 22 C-14.35953094 19.64046906 -14.49141413 18.22104383 -15 15 C-14.34 15 -13.68 15 -13 15 C-12.7215625 13.9790625 -12.7215625 13.9790625 -12.4375 12.9375 C-9.79161026 7.53068184 -4.94575642 3.36311437 0 0 Z " fill="#2C333B" transform="translate(552,524)"/>
<path d="M0 0 C6.44362304 -0.2408831 12.2103966 0.64700392 18.5 2 C19.4178125 2.19078125 20.335625 2.3815625 21.28125 2.578125 C23.52241577 3.04503453 25.76180083 3.51910692 28 4 C28 4.66 28 5.32 28 6 C19.95543903 5.29563752 11.98649105 4.18531495 4 3 C4 2.34 4 1.68 4 1 C2.68 0.67 1.36 0.34 0 0 Z " fill="#292930" transform="translate(531,245)"/>
<path d="M0 0 C4.9248899 1.46601374 9.20353093 3.5517795 13.6875 6 C14.68233398 6.53367187 14.68233398 6.53367187 15.69726562 7.078125 C23.69851293 11.39702586 23.69851293 11.39702586 25 14 C19.4781886 13.09188753 15.15270632 10.71968565 10.25 8.125 C9.37472656 7.67769531 8.49945313 7.23039063 7.59765625 6.76953125 C6.76621094 6.33253906 5.93476563 5.89554688 5.078125 5.4453125 C4.31918945 5.04844238 3.56025391 4.65157227 2.77832031 4.24267578 C1 3 1 3 0 0 Z " fill="#2A2A2E" transform="translate(229,688)"/>
<path d="M0 0 C0.66 0 1.32 0 2 0 C6.42756482 9.62514092 7.2532329 19.57879784 5 30 C4.67 30 4.34 30 4 30 C3.96261719 28.70964844 3.92523437 27.41929687 3.88671875 26.08984375 C3.82102298 24.37236851 3.7545769 22.65492185 3.6875 20.9375 C3.66494141 20.08994141 3.64238281 19.24238281 3.61914062 18.36914062 C3.38374048 12.82653717 2.33272362 9.00941454 0 4 C0 2.68 0 1.36 0 0 Z " fill="#191A21" transform="translate(547,554)"/>
<path d="M0 0 C1.32 0.33 2.64 0.66 4 1 C4.0825 1.78375 4.165 2.5675 4.25 3.375 C4.4975 4.24125 4.745 5.1075 5 6 C5.6084375 6.27457031 6.216875 6.54914063 6.84375 6.83203125 C9.80547158 8.43629711 10.67181569 10.36735302 12.25 13.3125 C12.77078125 14.25738281 13.2915625 15.20226562 13.828125 16.17578125 C15.02164268 19.05215886 15.24638294 20.92581291 15 24 C12.56438083 20.90012106 10.58278731 17.66948372 8.625 14.25 C5.8448524 9.43343856 2.97970312 4.69528976 0 0 Z " fill="#2C2D33" transform="translate(633,358)"/>
<path d="M0 0 C0.33 0 0.66 0 1 0 C1 6.27 1 12.54 1 19 C1.66 19 2.32 19 3 19 C3.33 24.28 3.66 29.56 4 35 C3.01 34.67 2.02 34.34 1 34 C-0.33589978 22.69256254 -0.09861278 11.36626101 0 0 Z " fill="#424142" transform="translate(147,533)"/>
<path d="M0 0 C-2 2 -2 2 -4.7578125 2.16015625 C-5.86898438 2.12792969 -6.98015625 2.09570312 -8.125 2.0625 C-13.64454261 1.97020041 -13.64454261 1.97020041 -19.125 2.5 C-24.10072736 3.14202934 -28.99107548 3.08286824 -34 3 C-23.65965697 -2.69921232 -11.29282191 -0.92852091 0 0 Z " fill="#2A2A2F" transform="translate(321,430)"/>
<path d="M0 0 C0.33 0.66 0.66 1.32 1 2 C1.66 2 2.32 2 3 2 C3.69508823 8.51244208 4.31909709 14.5510809 3 21 C2.34 21 1.68 21 1 21 C0.67 21.66 0.34 22.32 0 23 C0 15.41 0 7.82 0 0 Z " fill="#21242C" transform="translate(722,548)"/>
<path d="M0 0 C0.66 0 1.32 0 2 0 C0.29465708 4.52981712 -1.82888212 8.80636334 -4 13.125 C-4.35578125 13.84042969 -4.7115625 14.55585938 -5.078125 15.29296875 C-5.42359375 15.98261719 -5.7690625 16.67226563 -6.125 17.3828125 C-6.43695313 18.00559082 -6.74890625 18.62836914 -7.0703125 19.27001953 C-8 21 -8 21 -10 24 C-10.82200425 17.75276774 -7.92551394 13.28682163 -5 8 C-4.34 8 -3.68 8 -3 8 C-2.814375 6.576875 -2.814375 6.576875 -2.625 5.125 C-2 2 -2 2 0 0 Z " fill="#2B3036" transform="translate(218,480)"/>
<path d="M0 0 C-2.64738916 1.4606285 -3.89448334 2 -7 2 C-7 2.66 -7 3.32 -7 4 C-9.64 4 -12.28 4 -15 4 C-15 4.66 -15 5.32 -15 6 C-17.31 6 -19.62 6 -22 6 C-22 6.66 -22 7.32 -22 8 C-26.455 8.495 -26.455 8.495 -31 9 C-27.5766053 6.71773687 -24.14414826 5.67250814 -20.25 4.5 C-19.5590625 4.28730469 -18.868125 4.07460938 -18.15625 3.85546875 C-16.10687389 3.2275584 -14.05420399 2.6119117 -12 2 C-11.34894287 1.80293457 -10.69788574 1.60586914 -10.02709961 1.40283203 C-6.56135566 0.37516954 -3.625414 -0.21972206 0 0 Z " fill="#3B3C40" transform="translate(282,379)"/>
<path d="M0 0 C6.40394202 -0.77288955 10.76664333 0.44288825 16.5 3.3125 C17.12342285 3.6206665 17.7468457 3.92883301 18.38916016 4.24633789 C22.86722851 6.60168553 22.86722851 6.60168553 24 10 C23.33097656 9.731875 22.66195312 9.46375 21.97265625 9.1875 C19.77352844 8.30900479 17.57275286 7.43463192 15.37109375 6.5625 C14.05988329 6.04169825 12.74868562 5.5208643 11.4375 5 C10.4484668 4.60941406 10.4484668 4.60941406 9.43945312 4.2109375 C6.22142291 2.93019382 3.06279063 1.62101896 0 0 Z " fill="#2B2E35" transform="translate(743,465)"/>
<path d="M0 0 C0.33 0 0.66 0 1 0 C1.3125 2.6875 1.3125 2.6875 1 6 C-1.4375 8.8125 -1.4375 8.8125 -4 11 C-4.33 11.33 -4.66 11.66 -5 12 C-10.2279653 12.26582874 -14.07117148 11.97153141 -19 10 C-15.82508854 8.12157211 -13.60142093 7.7993431 -9.9375 7.9375 C-6.81988584 8.04532726 -5.0029477 8.00098257 -2 7 C-0.77030122 3.48809191 -0.77030122 3.48809191 0 0 Z " fill="#383A3F" transform="translate(366,426)"/>
<path d="M0 0 C2.63790086 3.29132584 4.58665157 6.77874767 6.5625 10.5 C7.16191406 11.6240625 7.76132813 12.748125 8.37890625 13.90625 C9.61203095 16.25958679 10.82596212 18.61687834 12 21 C5.71130373 17.71151367 2.62049133 12.34691038 0.17578125 5.7890625 C-0.27877459 4.20940037 -0.65081623 2.60624536 -1 1 C-0.67 0.67 -0.34 0.34 0 0 Z " fill="#2A2D34" transform="translate(211,592)"/>
<path d="M0 0 C2.0625 0.4375 2.0625 0.4375 4 1 C1.98553185 2.30258843 -0.03568613 3.5918692 -2.0625 4.875 C-2.62388672 5.23980469 -3.18527344 5.60460937 -3.76367188 5.98046875 C-7.75668098 8.49036018 -11.4133639 9.88985878 -16 11 C-15.67 10.01 -15.34 9.02 -15 8 C-13.34795544 7.29788106 -11.68076231 6.63028587 -10 6 C-9.67 5.34 -9.34 4.68 -9 4 C-7.1875 3.18359375 -7.1875 3.18359375 -5 2.4375 C-2.26066983 1.60962158 -2.26066983 1.60962158 0 0 Z " fill="#292B30" transform="translate(580,707)"/>
<path d="M0 0 C4.82247266 1.39597893 9.09715033 3.48161976 13.53515625 5.78125 C15.98224786 6.9912224 18.45340404 8.01949247 21 9 C19.2409668 10.09057617 19.2409668 10.09057617 17 11 C15.09301758 10.5402832 15.09301758 10.5402832 13.14453125 9.55078125 C12.44005859 9.19693359 11.73558594 8.84308594 11.00976562 8.47851562 C10.28466797 8.09373047 9.55957031 7.70894531 8.8125 7.3125 C8.07580078 6.94705078 7.33910156 6.58160156 6.58007812 6.20507812 C1.1349579 3.4048737 1.1349579 3.4048737 0 0 Z " fill="#262932" transform="translate(258,644)"/>
<path d="M0 0 C1.60433809 0.47859241 3.20846416 0.95789558 4.8125 1.4375 C6.15248047 1.83775391 6.15248047 1.83775391 7.51953125 2.24609375 C9.35473055 2.80387873 11.18033726 3.39344575 13 4 C13 4.66 13 5.32 13 6 C14.98 6 16.96 6 19 6 C19.33 6.99 19.66 7.98 20 9 C12.51747162 7.62820313 5.94395046 5.07836721 -1 2 C-0.67 1.34 -0.34 0.68 0 0 Z " fill="#303032" transform="translate(255,701)"/>
<path d="M0 0 C0.5625 1.9375 0.5625 1.9375 1 4 C0.67 4.33 0.34 4.66 0 5 C-0.07179964 6.51928038 -0.08392007 8.04167482 -0.0625 9.5625 C-0.05347656 10.38878906 -0.04445313 11.21507812 -0.03515625 12.06640625 C-0.02355469 12.70449219 -0.01195312 13.34257813 0 14 C2.475 14.99 2.475 14.99 5 16 C3 17 3 17 0.5 16.3125 C-2 15 -2 15 -3.375 13.3125 C-4.28970356 9.92809682 -3.78705125 7.39037464 -3 4 C-1.4375 1.5625 -1.4375 1.5625 0 0 Z " fill="#252830" transform="translate(651,653)"/>
<path d="M0 0 C0.61035156 1.78637695 0.61035156 1.78637695 1 4 C-0.32236401 6.55988609 -1.65163841 8.81424882 -3.25 11.1875 C-3.65863281 11.82880859 -4.06726563 12.47011719 -4.48828125 13.13085938 C-7.59847834 17.86615945 -7.59847834 17.86615945 -11 19 C-9.58706563 15.11443047 -7.75134013 11.83786638 -5.5 8.375 C-4.8915625 7.43398438 -4.283125 6.49296875 -3.65625 5.5234375 C-2.44470349 3.67754352 -1.22476617 1.83714925 0 0 Z " fill="#23252D" transform="translate(604,620)"/>
<path d="M0 0 C-3.3172438 2.64890475 -6.83479077 4.66461342 -10.5625 6.6875 C-11.69816406 7.31011719 -12.83382813 7.93273437 -14.00390625 8.57421875 C-17 10 -17 10 -20 10 C-14.93496161 4.09078854 -8.00355484 -0.50022218 0 0 Z " fill="#303439" transform="translate(450,312)"/>
<path d="M0 0 C-0.66 0 -1.32 0 -2 0 C-2.09474609 0.91845703 -2.09474609 0.91845703 -2.19140625 1.85546875 C-3 4 -3 4 -5.21484375 5.30078125 C-6.56255859 5.80158203 -6.56255859 5.80158203 -7.9375 6.3125 C-9.28134766 6.83263672 -9.28134766 6.83263672 -10.65234375 7.36328125 C-13 8 -13 8 -15 7 C-14.67 6.34 -14.34 5.68 -14 5 C-13.01 5 -12.02 5 -11 5 C-10.67 4.01 -10.34 3.02 -10 2 C-3.73913043 -1.24637681 -3.73913043 -1.24637681 0 0 Z " fill="#0E2238" transform="translate(481,698)"/>
<path d="M0 0 C-3.37148985 2.2476599 -5.9237222 2.79798837 -9.875 3.625 C-11.08929687 3.88539063 -12.30359375 4.14578125 -13.5546875 4.4140625 C-16.47090842 4.91001844 -19.05617097 5.12312593 -22 5 C-21.34 4.67 -20.68 4.34 -20 4 C-20 3.34 -20 2.68 -20 2 C-13.25846717 0.74158054 -6.86515862 -0.26404456 0 0 Z " fill="#313236" transform="translate(758,679)"/>
<path d="M0 0 C0 0.33 0 0.66 0 1 C-1.90072266 1.29003906 -1.90072266 1.29003906 -3.83984375 1.5859375 C-5.53908642 1.84880377 -7.23830383 2.11183336 -8.9375 2.375 C-9.76830078 2.50132812 -10.59910156 2.62765625 -11.45507812 2.7578125 C-17.03062685 3.62560219 -22.50314204 4.72424084 -28 6 C-28 5.34 -28 4.68 -28 4 C-18.76832738 0.06799129 -9.93683115 -0.19027975 0 0 Z " fill="#363940" transform="translate(717,463)"/>
<path d="M0 0 C0.79051657 2.2849048 1.17619733 3.52618144 0.3190918 5.83105469 C-0.05046631 6.43852539 -0.42002441 7.04599609 -0.80078125 7.671875 C-1.20103516 8.33574219 -1.60128906 8.99960937 -2.01367188 9.68359375 C-2.44228516 10.36550781 -2.87089844 11.04742187 -3.3125 11.75 C-3.72951172 12.44738281 -4.14652344 13.14476562 -4.57617188 13.86328125 C-5.6522309 15.6172403 -6.81968479 17.3144344 -8 19 C-8.66 19 -9.32 19 -10 19 C-8.62394084 14.23448987 -6.53221934 10.2751447 -3.875 6.125 C-3.50246094 5.53203125 -3.12992187 4.9390625 -2.74609375 4.328125 C-1.83635 2.8818657 -0.91896202 1.44041954 0 0 Z " fill="#282B32" transform="translate(346,333)"/>
<path d="M0 0 C2.13519963 0.71173321 4.26985733 1.42469035 6.40234375 2.14453125 C8.11561652 2.70875191 9.83717757 3.24847736 11.56640625 3.76171875 C12.36949219 4.00535156 13.17257812 4.24898437 14 4.5 C15.11375 4.82484375 15.11375 4.82484375 16.25 5.15625 C16.8275 5.4346875 17.405 5.713125 18 6 C18.33 6.99 18.66 7.98 19 9 C14.89149646 8.30495241 11.15107804 7.08128479 7.25 5.625 C6.10015625 5.20476563 4.9503125 4.78453125 3.765625 4.3515625 C2.85296875 3.90554688 1.9403125 3.45953125 1 3 C0.67 2.01 0.34 1.02 0 0 Z " fill="#272A31" transform="translate(657,670)"/>
<path d="M0 0 C0.33 0.66 0.66 1.32 1 2 C0.319375 2.639375 -0.36125 3.27875 -1.0625 3.9375 C-4.22756178 7.05747543 -6.75747469 10.60934838 -9.3515625 14.20703125 C-9.89554687 14.79871094 -10.43953125 15.39039063 -11 16 C-11.99 16 -12.98 16 -14 16 C-12.38049597 12.31453408 -10.0945887 9.42667806 -7.5625 6.3125 C-6.78003906 5.33925781 -5.99757813 4.36601562 -5.19140625 3.36328125 C-3 1 -3 1 0 0 Z " fill="#2A2E34" transform="translate(369,306)"/>
<path d="M0 0 C0 0.66 0 1.32 0 2 C0.66 2.33 1.32 2.66 2 3 C-10.375 1.515 -10.375 1.515 -23 0 C-23 -0.33 -23 -0.66 -23 -1 C-14.94313304 -2.1736381 -7.95420855 -1.67968453 0 0 Z " fill="#3B3C3F" transform="translate(344,432)"/>
<path d="M0 0 C5.320677 0.32246527 8.43256929 3.34448458 12 7 C14.20124818 10.05334425 15 11.23403555 15 15 C10 10 5 5 0 0 Z " fill="#31353C" transform="translate(608,332)"/>
<path d="M0 0 C0.33 0.66 0.66 1.32 1 2 C-0.36078271 4.62710761 -1.76905403 7.10906702 -3.3125 9.625 C-3.72951172 10.33140625 -4.14652344 11.0378125 -4.57617188 11.765625 C-5.65567248 13.54929745 -6.82186531 15.27988151 -8 17 C-8.66 17 -9.32 17 -10 17 C-8.44966581 11.10873008 -5.45088361 5.97939999 -2 1 C-1.34 0.67 -0.68 0.34 0 0 Z " fill="#28282E" transform="translate(615,603)"/>
<path d="M0 0 C-0.99 1.485 -0.99 1.485 -2 3 C-5.23046875 3.2578125 -5.23046875 3.2578125 -9.1875 3.125 C-14.31356421 2.97167804 -18.96541246 3.15110716 -24 4 C-16.6660942 -0.88927054 -8.49543198 -0.23310637 0 0 Z " fill="#3B4652" transform="translate(698,526)"/>
<path d="M0 0 C3.65427749 1.2180925 4.13131136 2.63824799 5.80078125 5.96679688 C6.11402344 6.61712891 6.42726563 7.26746094 6.75 7.9375 C7.07871094 8.58396484 7.40742187 9.23042969 7.74609375 9.89648438 C8.56735963 11.56500556 9.29139996 13.28060285 10 15 C9.67 15.66 9.34 16.32 9 17 C6.00641141 14.41994017 4.54433112 11.45675187 2.8125 7.9375 C2.28269531 6.87402344 1.75289062 5.81054688 1.20703125 4.71484375 C0 2 0 2 0 0 Z " fill="#26282F" transform="translate(688,346)"/>
<path d="M0 0 C0.66 0.33 1.32 0.66 2 1 C-0.51498404 3.69462575 -2.6723237 5.44708439 -6 7 C-6.66 7.66 -7.32 8.32 -8 9 C-10.5 9.75 -10.5 9.75 -13 10 C-13.66 9.34 -14.32 8.68 -15 8 C-14.00097656 7.50628906 -13.00195312 7.01257813 -11.97265625 6.50390625 C-10.6692186 5.85687605 -9.36583602 5.20973489 -8.0625 4.5625 C-7.40314453 4.23701172 -6.74378906 3.91152344 -6.06445312 3.57617188 C-2.81709965 2.10888654 -2.81709965 2.10888654 0 0 Z " fill="#2C3038" transform="translate(504,636)"/>
<path d="M0 0 C0.66 0.33 1.32 0.66 2 1 C-0.97 3.64 -3.94 6.28 -7 9 C-7.66 8.67 -8.32 8.34 -9 8 C-9.66 8 -10.32 8 -11 8 C-9.70700306 5.11562221 -8.34058637 3.12780579 -6 1 C-5.01 1.33 -4.02 1.66 -3 2 C-2.01 1.34 -1.02 0.68 0 0 Z " fill="#1F3448" transform="translate(525,438)"/>
<path d="M0 0 C4.75416122 0.49493467 7.55220583 1.72123406 11.375 4.5625 C12.24898437 5.20316406 13.12296875 5.84382813 14.0234375 6.50390625 C14.67570313 6.99761719 15.32796875 7.49132812 16 8 C15.67 8.99 15.34 9.98 15 11 C12.49720508 9.35828571 9.99772323 7.71189741 7.5 6.0625 C6.78457031 5.59392578 6.06914063 5.12535156 5.33203125 4.64257812 C3.53711592 3.45451512 1.7663474 2.23013479 0 1 C0 0.67 0 0.34 0 0 Z " fill="#23272E" transform="translate(790,426)"/>
<path d="M0 0 C3.21235265 2.90968988 5.03600712 5.61771973 6.8125 9.5625 C7.47185547 10.98755859 7.47185547 10.98755859 8.14453125 12.44140625 C9 15 9 15 8 18 C8 17.34 8 16.68 8 16 C7.34 16 6.68 16 6 16 C3.54144009 10.73677223 1.43823491 5.63308675 0 0 Z " fill="#2B3038" transform="translate(575,533)"/>
<path d="M0 0 C3.16115776 1.36983503 3.9927092 1.9890638 6 5 C7.02139413 9.48385601 7.10576767 13.78862675 7.0625 18.375 C7.05347656 19.62023437 7.04445313 20.86546875 7.03515625 22.1484375 C7.02355469 23.08945312 7.01195312 24.03046875 7 25 C6.67 25 6.34 25 6 25 C5.96261719 24.154375 5.92523437 23.30875 5.88671875 22.4375 C5.39577496 13.96631299 4.06412071 7.50299209 0 0 Z " fill="#121620" transform="translate(557,444)"/>
<path d="M0 0 C0.66 0.33 1.32 0.66 2 1 C-1.3 4.63 -4.6 8.26 -8 12 C-9.32 11.67 -10.64 11.34 -12 11 C-8.04 7.37 -4.08 3.74 0 0 Z " fill="#2F333B" transform="translate(210,411)"/>
<path d="M0 0 C0.66 0.66 1.32 1.32 2 2 C0.12612523 2.3396019 -1.74916697 2.67138691 -3.625 3 C-4.66914063 3.185625 -5.71328125 3.37125 -6.7890625 3.5625 C-9.90574865 3.98715797 -12.85930812 4.07545206 -16 4 C-15 2 -15 2 -13.14453125 1.3671875 C-8.72356082 0.43411836 -4.54246377 -0.4431672 0 0 Z " fill="#2E2F34" transform="translate(423,716)"/>
<path d="M0 0 C6.01326751 0.57914667 12.00892722 1.22337945 18 2 C18 2.99 18 3.98 18 5 C16.22844346 4.88570603 14.45773771 4.75816963 12.6875 4.625 C11.70136719 4.55539062 10.71523438 4.48578125 9.69921875 4.4140625 C7 4 7 4 4 2 C2.67432801 1.31822584 1.34246312 0.64808564 0 0 Z " fill="#34373E" transform="translate(312,663)"/>
<path d="M0 0 C0.703125 1.67578125 0.703125 1.67578125 1 4 C-0.328125 6.54296875 -0.328125 6.54296875 -2.25 9.1875 C-3.18585937 10.50814453 -3.18585937 10.50814453 -4.140625 11.85546875 C-6 14 -6 14 -9 15 C-7.61219205 11.10993227 -5.7847773 8.03441292 -3.375 4.6875 C-2.74335937 3.80449219 -2.11171875 2.92148437 -1.4609375 2.01171875 C-0.97882812 1.34785156 -0.49671875 0.68398438 0 0 Z " fill="#2C2E34" transform="translate(671,622)"/>
<path d="M0 0 C0.69921875 1.73828125 0.69921875 1.73828125 1 4 C-0.29296875 6.10546875 -0.29296875 6.10546875 -2.1875 8.1875 C-3.10595703 9.22970703 -3.10595703 9.22970703 -4.04296875 10.29296875 C-6.08714076 12.076009 -7.35111359 12.60648472 -10 13 C-6.73279209 8.61105071 -3.45101522 4.24740335 0 0 Z " fill="#252A32" transform="translate(539,605)"/>
<path d="M0 0 C0 3.88091967 -1.65317733 6.39673296 -3.5 9.6875 C-3.83386719 10.29400391 -4.16773438 10.90050781 -4.51171875 11.52539062 C-5.335537 13.02003231 -6.16703451 14.51043671 -7 16 C-7.33 16 -7.66 16 -8 16 C-7.62270085 9.96321355 -5.73910188 5.77579991 -2 1 C-1.34 0.67 -0.68 0.34 0 0 Z " fill="#25282F" transform="translate(389,365)"/>
<path d="M0 0 C-0.33 0.99 -0.66 1.98 -1 3 C-2.7290774 3.02725341 -4.45828176 3.04650987 -6.1875 3.0625 C-7.63189453 3.07990234 -7.63189453 3.07990234 -9.10546875 3.09765625 C-11.85576513 3.00486622 -14.32479591 2.62111685 -17 2 C-17 1.67 -17 1.34 -17 1 C-11.30494264 0.3583034 -5.73266804 -0.12462322 0 0 Z " fill="#081D36" transform="translate(408,717)"/>
<path d="M0 0 C5.27749285 0.53851968 9.25645564 1.77343836 14 4 C14 4.66 14 5.32 14 6 C14.66 6.33 15.32 6.66 16 7 C11.15311808 6.21824485 6.6233633 4.60155722 2 3 C2 2.34 2 1.68 2 1 C1.34 0.67 0.68 0.34 0 0 Z " fill="#282C33" transform="translate(556,304)"/>
<path d="M0 0 C0.66 0.33 1.32 0.66 2 1 C-1.29650658 4.69208738 -4.57427631 6.86616894 -9 9 C-11.21875 8.60546875 -11.21875 8.60546875 -13 8 C-10.880788 6.63594382 -8.75551882 5.28368225 -6.625 3.9375 C-6.02171875 3.54755859 -5.4184375 3.15761719 -4.796875 2.75585938 C-3.23507443 1.77539568 -1.62007786 0.88083925 0 0 Z " fill="#2A2C32" transform="translate(534,697)"/>
<path d="M0 0 C0.99 0.33 1.98 0.66 3 1 C-4.2 7 -4.2 7 -9 7 C-9 6.34 -9 5.68 -9 5 C-9.99 5.33 -10.98 5.66 -12 6 C-12 5.34 -12 4.68 -12 4 C-11.38511719 3.87882812 -10.77023437 3.75765625 -10.13671875 3.6328125 C-9.32847656 3.46523438 -8.52023437 3.29765625 -7.6875 3.125 C-6.88699219 2.96257812 -6.08648438 2.80015625 -5.26171875 2.6328125 C-2.74698882 2.05521001 -2.74698882 2.05521001 0 0 Z " fill="#2B3139" transform="translate(554,482)"/>
<path d="M0 0 C0.74609375 1.703125 0.74609375 1.703125 1 4 C-0.65234375 6.359375 -0.65234375 6.359375 -2.9375 8.75 C-4.06478516 9.94882812 -4.06478516 9.94882812 -5.21484375 11.171875 C-5.80394531 11.77515625 -6.39304687 12.3784375 -7 13 C-7.66 11.68 -8.32 10.36 -9 9 C-8.21625 8.566875 -7.4325 8.13375 -6.625 7.6875 C-3.78301625 6.10779753 -3.78301625 6.10779753 -2 3 C-1.34 3 -0.68 3 0 3 C0 2.01 0 1.02 0 0 Z " fill="#2E333B" transform="translate(480,459)"/>
<path d="M0 0 C3.27718321 3.5892959 5.2003651 8.22855217 6 13 C5.01 14.485 5.01 14.485 4 16 C-0.59225513 5.62642369 -0.59225513 5.62642369 0 0 Z " fill="#292C32" transform="translate(651,385)"/>
<path d="M0 0 C0.33 0.66 0.66 1.32 1 2 C-0.328125 4.56640625 -0.328125 4.56640625 -2.25 7.5625 C-2.87390625 8.55378906 -3.4978125 9.54507813 -4.140625 10.56640625 C-6 13 -6 13 -9 14 C-7.36980221 9.25760644 -4.68037494 2.34018747 0 0 Z " fill="#24262D" transform="translate(661,639)"/>
<path d="M0 0 C2.33944736 0.28730055 4.6739143 0.61936779 7 1 C7 1.33 7 1.66 7 2 C-0.7558343 3.70994772 -8.06603268 4.24923458 -16 4 C-16 3.67 -16 3.34 -16 3 C-14.39318359 2.80083984 -14.39318359 2.80083984 -12.75390625 2.59765625 C-11.35674231 2.4194944 -9.95960841 2.24109681 -8.5625 2.0625 C-7.85544922 1.97548828 -7.14839844 1.88847656 -6.41992188 1.79882812 C-2.91182032 1.61783809 -2.91182032 1.61783809 0 0 Z " fill="#464543" transform="translate(545,721)"/>
<path d="M0 0 C0 0.33 0 0.66 0 1 C-6.74233419 1.12910853 -13.30386804 0.797837 -20 0 C-20 -0.33 -20 -0.66 -20 -1 C-12.88688652 -2.72439115 -6.92135317 -1.94283598 0 0 Z " fill="#423E3C" transform="translate(345,721)"/>
<path d="M0 0 C0.33 0.66 0.66 1.32 1 2 C-1.64440639 2.8814688 -3.28060752 3.16174818 -6 3.1875 C-6.680625 3.20167969 -7.36125 3.21585938 -8.0625 3.23046875 C-10 3 -10 3 -13 1 C-11.58622218 0.63447197 -10.16879424 0.28304505 -8.75 -0.0625 C-7.96109375 -0.25972656 -7.1721875 -0.45695313 -6.359375 -0.66015625 C-3.86185292 -1.01989867 -2.34449197 -0.9077126 0 0 Z " fill="#18293A" transform="translate(557,719)"/>
<path d="M0 0 C1 3 1 3 -0.21484375 5.91796875 C-0.78332031 6.99691406 -1.35179687 8.07585938 -1.9375 9.1875 C-2.50339844 10.27417969 -3.06929687 11.36085938 -3.65234375 12.48046875 C-4.09707031 13.31191406 -4.54179688 14.14335938 -5 15 C-5.33 15 -5.66 15 -6 15 C-5.46147465 9.72245155 -4.34981281 5.69962561 -2 1 C-1.34 0.67 -0.68 0.34 0 0 Z " fill="#323236" transform="translate(845,598)"/>
<path d="M0 0 C1.56454159 4.02014661 0.46223974 7.69925681 -0.4375 11.75 C-0.58509766 12.44738281 -0.73269531 13.14476562 -0.88476562 13.86328125 C-1.24868033 15.5772021 -1.62329068 17.28884581 -2 19 C-2.33 19 -2.66 19 -3 19 C-4.0006709 13.03654233 -4.0662997 8.71271093 -2 3 C-1.34 3 -0.68 3 0 3 C0 2.01 0 1.02 0 0 Z " fill="#33363C" transform="translate(205,510)"/>
<path d="M0 0 C0.66 0.33 1.32 0.66 2 1 C0.66749209 4.5875213 -0.830717 7.8364623 -3 11 C-3.66 11 -4.32 11 -5 11 C-5 9.35 -5 7.7 -5 6 C-4.34 5.67 -3.68 5.34 -3 5 C-2.835 4.34 -2.67 3.68 -2.5 3 C-2.335 2.34 -2.17 1.68 -2 1 C-1.34 0.67 -0.68 0.34 0 0 Z " fill="#1F2735" transform="translate(569,620)"/>
<path d="M0 0 C2.22889496 -0.05428973 4.45817471 -0.09292338 6.6875 -0.125 C8.54955078 -0.15980469 8.54955078 -0.15980469 10.44921875 -0.1953125 C13.81237857 -0.01032021 15.9985587 0.54232105 19 2 C19 2.33 19 2.66 19 3 C16.95809019 2.85761163 14.91647955 2.71092972 12.875 2.5625 C11.73804688 2.48128906 10.60109375 2.40007813 9.4296875 2.31640625 C6.2459522 2.02269035 3.14489093 1.56875687 0 1 C0 0.67 0 0.34 0 0 Z " fill="#3D3B3C" transform="translate(306,717)"/>
<path d="M0 0 C3.23861303 1.44424635 5.61969163 3.25772247 8.25 5.625 C8.95640625 6.25664063 9.6628125 6.88828125 10.390625 7.5390625 C10.92171875 8.02117188 11.4528125 8.50328125 12 9 C11.34 9.66 10.68 10.32 10 11 C5.86062408 7.69984002 2.41337795 4.82675589 0 0 Z " fill="#1F2128" transform="translate(198,664)"/>
<path d="M0 0 C0.66 0.33 1.32 0.66 2 1 C1.50769231 7.52307692 1.50769231 7.52307692 -1.0625 9.9375 C-1.701875 10.288125 -2.34125 10.63875 -3 11 C-4 8 -4 8 -3.22265625 5.95703125 C-2.83980469 5.24933594 -2.45695313 4.54164063 -2.0625 3.8125 C-1.68222656 3.09707031 -1.30195312 2.38164063 -0.91015625 1.64453125 C-0.60980469 1.10183594 -0.30945313 0.55914063 0 0 Z " fill="#212B38" transform="translate(796,580)"/>
<path d="M0 0 C0.66 0 1.32 0 2 0 C2.39143394 1.74639757 2.76254287 3.49735918 3.125 5.25 C3.33382812 6.22453125 3.54265625 7.1990625 3.7578125 8.203125 C4.0202996 11.23442766 3.61988849 12.48017346 2 15 C1.66048381 13.43883181 1.32867456 11.87598662 1 10.3125 C0.814375 9.44238281 0.62875 8.57226562 0.4375 7.67578125 C0.01027953 5.06287036 -0.07616201 2.64186962 0 0 Z " fill="#353436" transform="translate(149,568)"/>
<path d="M0 0 C-0.99 0 -1.98 0 -3 0 C-3 0.66 -3 1.32 -3 2 C-6.15506142 2.93619813 -8.96586502 3.1057123 -12.25 3.0625 C-13.14203125 3.05347656 -14.0340625 3.04445313 -14.953125 3.03515625 C-15.62859375 3.02355469 -16.3040625 3.01195312 -17 3 C-17 2.67 -17 2.34 -17 2 C-14.91952703 1.4678559 -12.83547707 0.94968214 -10.75 0.4375 C-9.58984375 0.14746094 -8.4296875 -0.14257812 -7.234375 -0.44140625 C-4.27909017 -0.95179964 -2.75565899 -1.02996165 0 0 Z " fill="#1F1F25" transform="translate(446,712)"/>
<path d="M0 0 C0.66 0 1.32 0 2 0 C0.43358249 4.30764815 -1.68336156 8.06171464 -4 12 C-4.99 11.67 -5.98 11.34 -7 11 C-7 10.34 -7 9.68 -7 9 C-5.66666667 7.66666667 -4.33333333 6.33333333 -3 5 C-2.195625 3.63875 -2.195625 3.63875 -1.375 2.25 C-0.92125 1.5075 -0.4675 0.765 0 0 Z " fill="#272C35" transform="translate(636,643)"/>
<path d="M0 0 C3.66666667 3.66666667 7.33333333 7.33333333 11 11 C10.67 11.66 10.34 12.32 10 13 C8.32155921 11.59730305 6.65754408 10.17732962 5 8.75 C4.071875 7.96109375 3.14375 7.1721875 2.1875 6.359375 C0 4 0 4 0 0 Z " fill="#32373F" transform="translate(223,613)"/>
<path d="M0 0 C1.32 0 2.64 0 4 0 C4 0.66 4 1.32 4 2 C4.66 2 5.32 2 6 2 C7.70680947 3.62553283 9.37660195 5.29115995 11 7 C10.67 7.66 10.34 8.32 10 9 C6.78956118 7.61811547 4.95063635 6.07578097 2.75 3.375 C2.22921875 2.74335938 1.7084375 2.11171875 1.171875 1.4609375 C0.78515625 0.97882813 0.3984375 0.49671875 0 0 Z " fill="#24272E" transform="translate(468,448)"/>
<path d="M0 0 C2.0625 0.4375 2.0625 0.4375 4 1 C2.92456217 1.98783194 1.83926783 2.96493943 0.75 3.9375 C-0.15492188 4.75541016 -0.15492188 4.75541016 -1.078125 5.58984375 C-3.08467305 7.06212799 -4.57002449 7.57529189 -7 8 C-6.02133662 6.85373678 -5.04205413 5.70800212 -4.0625 4.5625 C-3.51722656 3.92441406 -2.97195313 3.28632813 -2.41015625 2.62890625 C-1.63204305 1.73008851 -0.84063472 0.84063472 0 0 Z " fill="#272E38" transform="translate(377,296)"/>
<path d="M0 0 C3.51705958 0.65271556 6.89325077 1.51393024 10.3125 2.5625 C11.19550781 2.83191406 12.07851563 3.10132813 12.98828125 3.37890625 C13.65214844 3.58386719 14.31601562 3.78882813 15 4 C12.85174709 5.27837869 11.49428015 6.02466657 8.96484375 5.8984375 C3.44557568 4.47342417 3.44557568 4.47342417 1 1.875 C0.67 1.25625 0.34 0.6375 0 0 Z " fill="#363A42" transform="translate(684,623)"/>
<path d="M0 0 C0.66 0.33 1.32 0.66 2 1 C-1.62744302 5.03049225 -4.95679538 6.31893179 -10 8 C-9.75 6.10546875 -9.75 6.10546875 -9 4 C-7.1875 2.98828125 -7.1875 2.98828125 -5 2.3125 C-2.25399382 1.56825097 -2.25399382 1.56825097 0 0 Z " fill="#11253A" transform="translate(666,536)"/>
<path d="M0 0 C0.556875 0.391875 1.11375 0.78375 1.6875 1.1875 C0.615 1.414375 -0.4575 1.64125 -1.5625 1.875 C-5.76911703 3.34731596 -6.72759944 4.71125442 -9.3125 8.1875 C-11.42578125 8.83984375 -11.42578125 8.83984375 -13.3125 9.1875 C-4.67743522 -1.64342318 -4.67743522 -1.64342318 0 0 Z " fill="#434445" transform="translate(451.3125,429.8125)"/>
<path d="M0 0 C-2.1755306 2.1755306 -3.55973892 2.71879553 -6.4375 3.6875 C-7.61119141 4.09548828 -7.61119141 4.09548828 -8.80859375 4.51171875 C-11 5 -11 5 -14 4 C-13 2 -13 2 -10.375 0.875 C-6.78189212 -0.05654649 -3.69584376 -0.14783375 0 0 Z " fill="#35373C" transform="translate(283,435)"/>
<path d="M0 0 C1.72357119 2.58535679 2.44735018 4.03811614 3.1875 6.9375 C3.36667969 7.60652344 3.54585937 8.27554687 3.73046875 8.96484375 C4.03268678 11.24680888 3.68756692 12.82026659 3 15 C0.31780178 9.63560356 -0.3152595 5.98993047 0 0 Z " fill="#30343B" transform="translate(707,388)"/>
<path d="M0 0 C-2.3726962 2.74733244 -4.46230188 4.11557547 -8 5 C-11.8125 4.125 -11.8125 4.125 -15 3 C-15 2.67 -15 2.34 -15 2 C-12.87707704 1.47076428 -10.75157949 0.95184623 -8.625 0.4375 C-7.44164062 0.14746094 -6.25828125 -0.14257812 -5.0390625 -0.44140625 C-2 -1 -2 -1 0 0 Z " fill="#313A47" transform="translate(747,626)"/>
<path d="M0 0 C3 1 3 1 4.203125 2.7421875 C4.54859375 3.44601562 4.8940625 4.14984375 5.25 4.875 C5.60578125 5.57367188 5.9615625 6.27234375 6.328125 6.9921875 C7 9 7 9 6 12 C4.99157547 10.56839732 3.99352109 9.12948547 3 7.6875 C2.1646875 6.48673828 2.1646875 6.48673828 1.3125 5.26171875 C0 3 0 3 0 0 Z " fill="#323337" transform="translate(510,470)"/>
<path d="M0 0 C2.74931827 0.68732957 4.53418821 1.35560222 6.22265625 3.69140625 C7.20324656 5.43116325 8.10688055 7.2137611 9 9 C5.62917442 7.55536047 3.41962708 5.75336875 1 3 C0.67 2.01 0.34 1.02 0 0 Z " fill="#202C3C" transform="translate(598,322)"/>
<path d="M0 0 C3.35250701 0.57575664 4.93818629 1.59306263 7.25 4.0625 C8.03117188 4.88427734 8.03117188 4.88427734 8.828125 5.72265625 C9.21484375 6.14417969 9.6015625 6.56570313 10 7 C9.67 7.99 9.34 8.98 9 10 C7.49702124 8.52386015 5.99768715 7.04400843 4.5 5.5625 C3.6646875 4.73878906 2.829375 3.91507812 1.96875 3.06640625 C0 1 0 1 0 0 Z " fill="#1F2029" transform="translate(654,303)"/>
<path d="M0 0 C-0.33 0.66 -0.66 1.32 -1 2 C-5.28769786 3.29930238 -9.56510345 3.07516774 -14 3 C-9.7368213 0.15788087 -5.03577274 -2.0143091 0 0 Z " fill="#35373B" transform="translate(468,250)"/>
<path d="M0 0 C0.70125 0.309375 1.4025 0.61875 2.125 0.9375 C5.08936657 2.03302678 7.87698108 2.56422992 11 3 C11 3.66 11 4.32 11 5 C8 6 8 6 4.375 4.75 C1 3 1 3 0 0 Z " fill="#323235" transform="translate(664,472)"/>
<path d="M0 0 C5.63281599 -0.2396943 10.54538831 0.61470179 16 2 C16 2.33 16 2.66 16 3 C11.95961674 3.84566161 8.99437427 4.05115112 5 3 C4.2575 2.855625 3.515 2.71125 2.75 2.5625 C2.1725 2.376875 1.595 2.19125 1 2 C0.67 1.34 0.34 0.68 0 0 Z " fill="#31363D" transform="translate(746,410)"/>
<path d="M0 0 C5.03985731 0.44469329 7.37634988 2.71343362 11 6 C10.01 6.33 9.02 6.66 8 7 C5.95703125 5.8203125 5.95703125 5.8203125 3.8125 4.125 C3.09707031 3.57070313 2.38164063 3.01640625 1.64453125 2.4453125 C1.10183594 1.96835937 0.55914063 1.49140625 0 1 C0 0.67 0 0.34 0 0 Z " fill="#272A30" transform="translate(629,282)"/>
<path d="M0 0 C0.66 0.33 1.32 0.66 2 1 C-0.72478774 4.36591427 -4.06856792 5.44226276 -8 7 C-8.66 6.34 -9.32 5.68 -10 5 C-8.38007835 4.13624104 -6.75388139 3.28424146 -5.125 2.4375 C-4.22007812 1.96183594 -3.31515625 1.48617188 -2.3828125 0.99609375 C-1.20332031 0.50302734 -1.20332031 0.50302734 0 0 Z " fill="#2D2F36" transform="translate(426,263)"/>
<path d="M0 0 C4.8333472 -0.08333357 9.23692563 0.04738513 14 1 C12 3 12 3 10.0546875 3.1953125 C8.03645833 3.13020833 6.01822917 3.06510417 4 3 C4 2.34 4 1.68 4 1 C2.68 0.67 1.36 0.34 0 0 Z " fill="#37393B" transform="translate(531,245)"/>
<path d="M0 0 C0 3.96130371 -1.34877125 4.82914401 -4 7.6875 C-4.7425 8.49574219 -5.485 9.30398438 -6.25 10.13671875 C-6.8275 10.75160156 -7.405 11.36648438 -8 12 C-8.66 11.67 -9.32 11.34 -10 11 C-6.7 7.37 -3.4 3.74 0 0 Z " fill="#242B35" transform="translate(562,675)"/>
<path d="M0 0 C4.29 0.33 8.58 0.66 13 1 C13 1.66 13 2.32 13 3 C11.39667209 3.08121924 9.79215974 3.13929134 8.1875 3.1875 C7.29417969 3.22230469 6.40085937 3.25710938 5.48046875 3.29296875 C3 3 3 3 0 0 Z " fill="#202126" transform="translate(692,681)"/>
<path d="M0 0 C-0.33 0.66 -0.66 1.32 -1 2 C-2.65 1.67 -4.3 1.34 -6 1 C-6 1.66 -6 2.32 -6 3 C-9.32534757 4.10844919 -11.62182575 3.84454356 -15 3 C-10.44719878 0.34419929 -5.08408244 -1.69469415 0 0 Z " fill="#363A41" transform="translate(458,658)"/>
<path d="M0 0 C0.33 0.66 0.66 1.32 1 2 C-0.97746603 2.73080266 -2.98072489 3.39421747 -5 4 C-5.66 3.67 -6.32 3.34 -7 3 C-8.32860925 2.64830932 -9.66158328 2.31229724 -11 2 C-9.73392393 1.46770674 -8.46189588 0.94955456 -7.1875 0.4375 C-6.47980469 0.14746094 -5.77210938 -0.14257812 -5.04296875 -0.44140625 C-3 -1 -3 -1 0 0 Z " fill="#2F3C4A" transform="translate(476,652)"/>
<path d="M0 0 C0.66 0.33 1.32 0.66 2 1 C1.67 1.66 1.34 2.32 1 3 C0.34 3 -0.32 3 -1 3 C-1.33 3.99 -1.66 4.98 -2 6 C-4.31 5.67 -6.62 5.34 -9 5 C-6.06626269 3.04417512 -3.21783702 1.43775696 0 0 Z " fill="#2E3741" transform="translate(757,620)"/>
<path d="M0 0 C-1.55603771 3.81936528 -3.95604931 6.26044438 -7 9 C-7.66 9 -8.32 9 -9 9 C-7.45665977 5.21180126 -4.44676575 0 0 0 Z " fill="#1F2027" transform="translate(677,585)"/>
<path d="M0 0 C1 3 1 3 0.109375 4.7890625 C-0.33921875 5.39492188 -0.7878125 6.00078125 -1.25 6.625 C-1.68828125 7.23601563 -2.1265625 7.84703125 -2.578125 8.4765625 C-4 10 -4 10 -7 11 C-5.22054913 6.95579349 -2.60470327 3.53921513 0 0 Z " fill="#202127" transform="translate(562,632)"/>
<path d="M0 0 C1.57554035 2.88628401 2.46276373 5.53342384 3.125 8.75 C3.29257813 9.54921875 3.46015625 10.3484375 3.6328125 11.171875 C3.81457031 12.07679688 3.81457031 12.07679688 4 13 C3.01 12.67 2.02 12.34 1 12 C-0.67563646 7.64334521 -1.36503641 4.50462014 0 0 Z " fill="#30353E" transform="translate(204,571)"/>
<path d="M0 0 C0.75 1.6875 0.75 1.6875 1 4 C-1.13381449 7.2769294 -2.25018012 8.75006004 -6 10 C-4.6302836 6.00499382 -2.74277578 3.19990508 0 0 Z " fill="#2E2F34" transform="translate(179,444)"/>
<path d="M0 0 C0 0.66 0 1.32 0 2 C0.99 2.33 1.98 2.66 3 3 C-2.0302076 2.47462276 -7.01885239 1.89405214 -12 1 C-12 0.67 -12 0.34 -12 0 C-7.66726186 -0.92844389 -4.33273814 -0.92844389 0 0 Z " fill="#393F47" transform="translate(548,301)"/>
<path d="M0 0 C2.97 0.33 5.94 0.66 9 1 C9 1.66 9 2.32 9 3 C10.32 3.66 11.64 4.32 13 5 C8.39146203 4.27991594 4.32762591 2.68704061 0 1 C0 0.67 0 0.34 0 0 Z " fill="#1B1E27" transform="translate(765,415)"/>
<path d="M0 0 C4.38889325 0.66498383 7.9811485 2.18757677 12 4 C12 4.33 12 4.66 12 5 C8.05272412 5.17942163 5.4019487 5.09350689 2 3 C2 2.34 2 1.68 2 1 C1.34 0.67 0.68 0.34 0 0 Z " fill="#313339" transform="translate(588,259)"/>
<path d="M0 0 C0.33 0.66 0.66 1.32 1 2 C-5.435 2.495 -5.435 2.495 -12 3 C-7.09396701 -0.67952474 -5.82490317 -0.29124516 0 0 Z " fill="#222227" transform="translate(487,246)"/>
<path d="M0 0 C0.33 1.32 0.66 2.64 1 4 C-1.38573379 5.89213369 -3.07175348 7.02391783 -6 8 C-4.55746343 4.63408134 -2.66735273 2.48952921 0 0 Z " fill="#2C3540" transform="translate(786,597)"/>
<path d="M0 0 C0.99 0.33 1.98 0.66 3 1 C3.80078125 2.77734375 3.80078125 2.77734375 4.3125 4.9375 C4.49425781 5.64777344 4.67601562 6.35804688 4.86328125 7.08984375 C4.93095703 8.03537109 4.93095703 8.03537109 5 9 C4.34 9.66 3.68 10.32 3 11 C2.49384702 9.73160474 1.99530901 8.46016898 1.5 7.1875 C1.2215625 6.47980469 0.943125 5.77210938 0.65625 5.04296875 C0 3 0 3 0 0 Z " fill="#363638" transform="translate(156,598)"/>
<path d="M0 0 C1.15957207 3.47871621 0.77456651 4.34219645 -0.4375 7.6875 C-0.72496094 8.49574219 -1.01242187 9.30398438 -1.30859375 10.13671875 C-1.65083984 11.05904297 -1.65083984 11.05904297 -2 12 C-2.33 12 -2.66 12 -3 12 C-3.28846154 4.5 -3.28846154 4.5 -1 1 C-0.67 0.67 -0.34 0.34 0 0 Z " fill="#31353D" transform="translate(375,393)"/>
<path d="M0 0 C1.4391134 0.28359887 2.87625518 0.57721399 4.3125 0.875 C5.11300781 1.03742187 5.91351563 1.19984375 6.73828125 1.3671875 C9 2 9 2 12 4 C5.375 4.125 5.375 4.125 2 3 C2 2.34 2 1.68 2 1 C1.34 0.67 0.68 0.34 0 0 Z " fill="#3E4042" transform="translate(282,655)"/>
<path d="M0 0 C0.8125 1.6875 0.8125 1.6875 1 4 C-1.4375 6.75 -1.4375 6.75 -4 9 C-4 5.00095031 -2.27413033 3.19799578 0 0 Z " fill="#2F3238" transform="translate(598,630)"/>
<path d="M0 0 C0.33 0.66 0.66 1.32 1 2 C-1.77280706 5.08089673 -4.06326356 6.68775452 -8 8 C-6.70989008 5.12206249 -5.42638194 3.03816083 -3 1 C-2.01 0.67 -1.02 0.34 0 0 Z " fill="#2E2F34" transform="translate(196,426)"/>
<path d="M0 0 C2.4294516 3.6441774 2.16179575 5.71241272 2 10 C0.68 9.67 -0.64 9.34 -2 9 C-1.34 6.03 -0.68 3.06 0 0 Z " fill="#23242B" transform="translate(661,415)"/>
<path d="M0 0 C2.96 4.44 2.96 4.44 4 7 C3.67 7.99 3.34 8.98 3 10 C1 9 1 9 -0.1875 5.5625 C-1 2 -1 2 0 0 Z " fill="#2B2F36" transform="translate(698,363)"/>
<path d="M0 0 C0.99 0.33 1.98 0.66 3 1 C2.01 1.495 2.01 1.495 1 2 C1.33 2.66 1.66 3.32 2 4 C-2.455 4.495 -2.455 4.495 -7 5 C-4 3 -4 3 -2 3 C-2 2.34 -2 1.68 -2 1 C-1.34 0.67 -0.68 0.34 0 0 Z " fill="#1A2633" transform="translate(768,672)"/>
<path d="M0 0 C-2.52956528 3.0916909 -5.22454612 3.90931332 -9 5 C-7.35234966 0.05704899 -4.76872479 -0.25776891 0 0 Z " fill="#303336" transform="translate(788,666)"/>
<path d="M0 0 C0 3.99904969 -1.72586967 5.80200422 -4 9 C-4.8125 7.3125 -4.8125 7.3125 -5 5 C-2.5625 2.25 -2.5625 2.25 0 0 Z " fill="#323338" transform="translate(630,655)"/>
<path d="M0 0 C3.91211733 1.15585285 6.8745041 2.35534962 10 5 C3.49955237 4.38675022 3.49955237 4.38675022 1.0625 2.5 C0 1 0 1 0 0 Z " fill="#35373E" transform="translate(258,644)"/>
<path d="M0 0 C0.99 0.66 1.98 1.32 3 2 C2.67 3.65 2.34 5.3 2 7 C1.34 6.67 0.68 6.34 0 6 C-0.66 6.66 -1.32 7.32 -2 8 C-2.20086443 4.28400809 -2.1519437 3.22791555 0 0 Z " fill="#1F364D" transform="translate(578,597)"/>
<path d="M0 0 C0.33 0 0.66 0 1 0 C1.125 6.625 1.125 6.625 0 10 C-0.99 10.33 -1.98 10.66 -3 11 C-2.01 7.37 -1.02 3.74 0 0 Z " fill="#32373E" transform="translate(800,569)"/>
<path d="M0 0 C0.33 0 0.66 0 1 0 C1 3.63 1 7.26 1 11 C0.34 11 -0.32 11 -1 11 C-1.33 11.66 -1.66 12.32 -2 13 C-1.39174965 8.65535464 -0.73832608 4.32448133 0 0 Z " fill="#3B4048" transform="translate(803,556)"/>
<path d="M0 0 C2 4 2 4 1.25 7.1875 C0 10 0 10 -2 11 C-1.34 7.37 -0.68 3.74 0 0 Z " fill="#34363C" transform="translate(154,493)"/>
<path d="M0 0 C3.7952131 1.49097658 5.61042731 3.75700849 8 7 C5.03824877 6.38722388 3.61941217 5.74627478 1 4 C0.3125 1.875 0.3125 1.875 0 0 Z " fill="#2F3237" transform="translate(809,438)"/>
<path d="M0 0 C-1.32 0.33 -2.64 0.66 -4 1 C-4 1.66 -4 2.32 -4 3 C-5.98 3.33 -7.96 3.66 -10 4 C-9.67 3.01 -9.34 2.02 -9 1 C-3.79245283 -1.26415094 -3.79245283 -1.26415094 0 0 Z " fill="#151923" transform="translate(266,441)"/>
<path d="M0 0 C0 3 0 3 -2.375 5.625 C-5 8 -5 8 -7 9 C-5.44499019 5.18315774 -2.96404505 2.80804268 0 0 Z " fill="#25282F" transform="translate(354,324)"/>
<path d="M0 0 C3.93673644 1.31224548 6.22719294 2.91910327 9 6 C4.70042176 5.52226908 2.78280018 4.29813355 0 1 C0 0.67 0 0.34 0 0 Z " fill="#32363B" transform="translate(619,274)"/>
<path d="M0 0 C-0.33 0.66 -0.66 1.32 -1 2 C-4.47325181 3.1577506 -7.36067448 3.06866652 -11 3 C-3.71428571 -1.85714286 -3.71428571 -1.85714286 0 0 Z " fill="#34353A" transform="translate(453,254)"/>
<path d="M0 0 C0.66 0.99 1.32 1.98 2 3 C-0.625 7.875 -0.625 7.875 -4 9 C-2.80100302 5.9168649 -1.52299523 2.93720508 0 0 Z " fill="#31353B" transform="translate(544,596)"/>
<path d="M0 0 C2.88575819 0.39803561 3.82189513 0.79009069 5.75 3.0625 C6.1625 3.701875 6.575 4.34125 7 5 C6.67 5.66 6.34 6.32 6 7 C1.125 2.25 1.125 2.25 0 0 Z " fill="#28282B" transform="translate(540,546)"/>
<path d="M0 0 C0.66 0 1.32 0 2 0 C1.67 3.63 1.34 7.26 1 11 C0.67 11 0.34 11 0 11 C-1.28571429 3.57142857 -1.28571429 3.57142857 0 0 Z " fill="#34363C" transform="translate(367,415)"/>
<path d="M0 0 C1.41687119 4.25061356 0.19320039 6.71851625 -1 11 C-1.66 10.67 -2.32 10.34 -3 10 C-2.39009109 6.44219804 -1.4216319 3.3171411 0 0 Z " fill="#07203A" transform="translate(376,384)"/>
<path d="M0 0 C0.33 0.66 0.66 1.32 1 2 C-3.75 6.875 -3.75 6.875 -6 8 C-5.38722388 5.03824877 -4.74627478 3.61941217 -3 1 C-2.01 0.67 -1.02 0.34 0 0 Z " fill="#1B1F26" transform="translate(369,306)"/>
<path d="M0 0 C2.29013653 3.4352048 2.17842973 4.985331 2 9 C0.4375 7.875 0.4375 7.875 -1 6 C-0.6875 2.8125 -0.6875 2.8125 0 0 Z " fill="#2E3033" transform="translate(516,711)"/>
<path d="M0 0 C-2.95183101 2.95183101 -5.95511947 3.08663988 -10 4 C-9.67 3.01 -9.34 2.02 -9 1 C-5.8035914 -0.06546953 -3.34252724 -0.07427838 0 0 Z " fill="#393A3F" transform="translate(476,702)"/>
<path d="M0 0 C0.66 0.33 1.32 0.66 2 1 C0.68 2.65 -0.64 4.3 -2 6 C-3.32 5.67 -4.64 5.34 -6 5 C-4.02 3.35 -2.04 1.7 0 0 Z " fill="#34383F" transform="translate(548,687)"/>
<path d="M0 0 C0 2.62113708 -0.31292445 4.50935112 -1 7 C-2.65 7 -4.3 7 -6 7 C-4.02 4.69 -2.04 2.38 0 0 Z " fill="#333B46" transform="translate(569,668)"/>
<path d="M0 0 C2.64 1.65 5.28 3.3 8 5 C4 6 4 6 1.75 4.75 C1.1725 4.1725 0.595 3.595 0 3 C0 2.01 0 1.02 0 0 Z " fill="#2F3138" transform="translate(245,635)"/>
<path d="M0 0 C0.66 0.33 1.32 0.66 2 1 C0.515 3.475 0.515 3.475 -1 6 C-2.32 5.67 -3.64 5.34 -5 5 C-3.35 3.35 -1.7 1.7 0 0 Z " fill="#2B333C" transform="translate(777,606)"/>
<path d="M0 0 C0.66 0 1.32 0 2 0 C2 4.62 2 9.24 2 14 C1.67 14 1.34 14 1 14 C0.67 9.38 0.34 4.76 0 0 Z " fill="#414342" transform="translate(144,536)"/>
<path d="M0 0 C0.33 1.32 0.66 2.64 1 4 C-0.65 5.32 -2.3 6.64 -4 8 C-4 4.09161134 -2.49432124 2.88405893 0 0 Z " fill="#2E3035" transform="translate(185,436)"/>
<path d="M0 0 C-2.85306797 2.32472205 -5.54074837 3.7508258 -9 5 C-6.81610567 0.16423399 -5.20641855 -0.13701101 0 0 Z " fill="#1E2228" transform="translate(529,436)"/>
<path d="M0 0 C0.66 0.33 1.32 0.66 2 1 C0.68 2.65 -0.64 4.3 -2 6 C-3.32 5.67 -4.64 5.34 -6 5 C-4.02 3.35 -2.04 1.7 0 0 Z " fill="#32343A" transform="translate(218,405)"/>
<path d="M0 0 C0.66 0.33 1.32 0.66 2 1 C0.90716423 2.03295436 -0.19970579 3.05107835 -1.3125 4.0625 C-1.92738281 4.63097656 -2.54226563 5.19945312 -3.17578125 5.78515625 C-3.77777344 6.18605469 -4.37976563 6.58695312 -5 7 C-5.99 6.67 -6.98 6.34 -8 6 C-5.36 4.02 -2.72 2.04 0 0 Z " fill="#092D4E" transform="translate(404,278)"/>
<path d="M0 0 C0.66 0.33 1.32 0.66 2 1 C0.25 3.0625 0.25 3.0625 -2 5 C-4.25 4.75 -4.25 4.75 -6 4 C-4.02 2.68 -2.04 1.36 0 0 Z " fill="#303239" transform="translate(534,697)"/>
<path d="M0 0 C0.99 0.66 1.98 1.32 3 2 C0.1875 3.5625 0.1875 3.5625 -3 5 C-3.99 4.67 -4.98 4.34 -6 4 C-5.34 4 -4.68 4 -4 4 C-4 3.34 -4 2.68 -4 2 C-2.68 1.34 -1.36 0.68 0 0 Z " fill="#38383B" transform="translate(776,670)"/>
<path d="M0 0 C0.66 0.33 1.32 0.66 2 1 C0.25 3.0625 0.25 3.0625 -2 5 C-4.25 4.75 -4.25 4.75 -6 4 C-4.02 2.68 -2.04 1.36 0 0 Z " fill="#2F3137" transform="translate(512,631)"/>
<path d="M0 0 C0 3.57575896 -1.08840607 5.05295935 -3 8 C-3.75 6.25 -3.75 6.25 -4 4 C-2.0625 1.75 -2.0625 1.75 0 0 Z " fill="#2E323A" transform="translate(647,626)"/>
<path d="M0 0 C0.94875 0.350625 1.8975 0.70125 2.875 1.0625 C2.545 1.7225 2.215 2.3825 1.875 3.0625 C-2.875 2.3125 -2.875 2.3125 -5.125 0.0625 C-3.125 -0.9375 -3.125 -0.9375 0 0 Z " fill="#07192F" transform="translate(685.125,623.9375)"/>
<path d="M0 0 C0.66 0 1.32 0 2 0 C0.125 4.75 0.125 4.75 -1 7 C-1.66 7 -2.32 7 -3 7 C-2.25 2.25 -2.25 2.25 0 0 Z " fill="#27272C" transform="translate(218,480)"/>
<path d="M0 0 C1.32 0 2.64 0 4 0 C3.34 1.32 2.68 2.64 2 4 C0.68 4 -0.64 4 -2 4 C-1.34 2.68 -0.68 1.36 0 0 Z " fill="#1D2938" transform="translate(226,467)"/>
<path d="M0 0 C0 3.57575896 -1.08840607 5.05295935 -3 8 C-3.75 6.25 -3.75 6.25 -4 4 C-2.0625 1.75 -2.0625 1.75 0 0 Z " fill="#34373C" transform="translate(389,365)"/>
<path d="M0 0 C1.32 0.33 2.64 0.66 4 1 C4.66 3.31 5.32 5.62 6 8 C3.33264727 5.51047079 1.44253657 3.36591866 0 0 Z " fill="#36383E" transform="translate(633,358)"/>
<path d="M0 0 C0.66 0.33 1.32 0.66 2 1 C0.25 3.0625 0.25 3.0625 -2 5 C-4.25 4.75 -4.25 4.75 -6 4 C-4.02 2.68 -2.04 1.36 0 0 Z " fill="#35363B" transform="translate(414,269)"/>
<path d="M0 0 C1.98 0 3.96 0 6 0 C6 0.33 6 0.66 6 1 C4.02 1 2.04 1 0 1 C0 0.67 0 0.34 0 0 Z " fill="#333C48" transform="translate(285,376)"/>
<path d="M0 0 C1.65 0 3.3 0 5 0 C5 0.33 5 0.66 5 1 C3.35 1 1.7 1 0 1 C0 0.67 0 0.34 0 0 Z " fill="#343E49" transform="translate(400,664)"/>
<path d="M0 0 C1.98 0.99 1.98 0.99 4 2 C2.68 1.67 1.36 1.34 0 1 C0 0.67 0 0.34 0 0 Z " fill="#37414D" transform="translate(670,478)"/>
<path d="M0 0 C0.66 0.99 1.32 1.98 2 3 C1.01 2.67 0.02 2.34 -1 2 C-0.67 1.34 -0.34 0.68 0 0 Z " fill="#323B47" transform="translate(641,373)"/>
<path d="M0 0 C0.99 0.33 1.98 0.66 3 1 C2.01 1.33 1.02 1.66 0 2 C0 1.34 0 0.68 0 0 Z " fill="#2C3946" transform="translate(562,309)"/>
<path d="M0 0 C0.66 0 1.32 0 2 0 C1.67 0.99 1.34 1.98 1 3 C0.67 2.01 0.34 1.02 0 0 Z " fill="#3A3E42" transform="translate(512,714)"/>
<path d="M0 0 C0.99 0.495 0.99 0.495 2 1 C1.67 1.66 1.34 2.32 1 3 C0.67 2.01 0.34 1.02 0 0 Z " fill="#3D3D3D" transform="translate(219,685)"/>
<path d="M0 0 C0 3 0 3 0 3 Z " fill="#3C4042" transform="translate(172,637)"/>
<path d="M0 0 C0.99 0.33 1.98 0.66 3 1 C2.01 1.33 1.02 1.66 0 2 C0 1.34 0 0.68 0 0 Z " fill="#363D43" transform="translate(436,256)"/>
<path d="M0 0 C3 1 3 1 3 1 Z " fill="#303C49" transform="translate(411,664)"/>
<path d="M0 0 C3 1 3 1 3 1 Z " fill="#343E48" transform="translate(336,664)"/>
<path d="M0 0 C0.66 0.66 1.32 1.32 2 2 C1.34 2 0.68 2 0 2 C0 1.34 0 0.68 0 0 Z " fill="#323F4B" transform="translate(520,618)"/>
<path d="" fill="#3C4043" transform="translate(0,0)"/>
<path d="M0 0 C0.99 0.495 0.99 0.495 2 1 C1.01 1.495 1.01 1.495 0 2 C0 1.34 0 0.68 0 0 Z " fill="#35424F" transform="translate(640,554)"/>
<path d="" fill="#2D3E4E" transform="translate(0,0)"/>
<path d="M0 0 C3 1 3 1 3 1 Z " fill="#3F4A50" transform="translate(558,520)"/>
<path d="" fill="#2B3A4C" transform="translate(0,0)"/>
<path d="M0 0 C3 1 3 1 3 1 Z " fill="#3C3F42" transform="translate(355,439)"/>
<path d="M0 0 C3 1 3 1 3 1 Z " fill="#313D46" transform="translate(542,432)"/>
<path d="" fill="#313D49" transform="translate(0,0)"/>
<path d="M0 0 C3 1 3 1 3 1 Z " fill="#333F4B" transform="translate(754,409)"/>
<path d="M0 0 C0.66 0 1.32 0 2 0 C1.67 0.66 1.34 1.32 1 2 C0.67 1.34 0.34 0.68 0 0 Z " fill="#3B4247" transform="translate(220,400)"/>
<path d="" fill="#353B3F" transform="translate(0,0)"/>
<path d="M0 0 C2 1 2 1 2 1 Z " fill="#383C43" transform="translate(420,719)"/>
<path d="" fill="#3A3C41" transform="translate(0,0)"/>
<path d="M0 0 C2 1 2 1 2 1 Z " fill="#3A3E40" transform="translate(723,686)"/>
<path d="M0 0 C2 1 2 1 2 1 Z " fill="#3C4046" transform="translate(697,685)"/>
<path d="M0 0 C2 1 2 1 2 1 Z " fill="#333C48" transform="translate(365,666)"/>
<path d="M0 0 C2 1 2 1 2 1 Z " fill="#363C45" transform="translate(395,665)"/>
<path d="M0 0 C2 1 2 1 2 1 Z " fill="#343F4A" transform="translate(408,664)"/>
<path d="M0 0 C2 1 2 1 2 1 Z " fill="#293746" transform="translate(291,656)"/>
<path d="M0 0 C2 1 2 1 2 1 Z " fill="#2F3D49" transform="translate(476,648)"/>
<path d="M0 0 C2 1 2 1 2 1 Z " fill="#2D3A45" transform="translate(262,644)"/>
<path d="M0 0 C2 1 2 1 2 1 Z " fill="#2B3C4A" transform="translate(585,643)"/>
<path d="M0 0 C2 1 2 1 2 1 Z " fill="#2F3E4E" transform="translate(592,632)"/>
<path d="M0 0 C2 1 2 1 2 1 Z " fill="#313E4C" transform="translate(504,632)"/>
<path d="M0 0 C2 1 2 1 2 1 Z " fill="#2A3F50" transform="translate(693,624)"/>
<path d="" fill="#3D4144" transform="translate(0,0)"/>
<path d="" fill="#3F4141" transform="translate(0,0)"/>
<path d="" fill="#33424E" transform="translate(0,0)"/>
<path d="" fill="#3E4242" transform="translate(0,0)"/>
<path d="M0 0 C2 1 2 1 2 1 Z " fill="#313F4C" transform="translate(608,601)"/>
<path d="" fill="#3E4144" transform="translate(0,0)"/>
<path d="" fill="#323F4B" transform="translate(0,0)"/>
<path d="" fill="#393D40" transform="translate(0,0)"/>
<path d="" fill="#3F4242" transform="translate(0,0)"/>
<path d="" fill="#283A4D" transform="translate(0,0)"/>
<path d="" fill="#39444D" transform="translate(0,0)"/>
<path d="" fill="#3E4040" transform="translate(0,0)"/>
<path d="" fill="#404241" transform="translate(0,0)"/>
<path d="" fill="#3E464B" transform="translate(0,0)"/>
<path d="" fill="#28394E" transform="translate(0,0)"/>
<path d="" fill="#2B3E51" transform="translate(0,0)"/>
<path d="" fill="#444546" transform="translate(0,0)"/>
<path d="" fill="#3E3F3F" transform="translate(0,0)"/>
<path d="" fill="#3B4047" transform="translate(0,0)"/>
<path d="M0 0 C2 1 2 1 2 1 Z " fill="#3A3E43" transform="translate(475,470)"/>
<path d="M0 0 C2 1 2 1 2 1 Z " fill="#2F3E4B" transform="translate(744,467)"/>
<path d="" fill="#3F4344" transform="translate(0,0)"/>
<path d="" fill="#35414C" transform="translate(0,0)"/>
<path d="M0 0 C2 1 2 1 2 1 Z " fill="#2E3944" transform="translate(531,432)"/>
<path d="M0 0 C2 1 2 1 2 1 Z " fill="#35424C" transform="translate(528,432)"/>
<path d="" fill="#303B47" transform="translate(0,0)"/>
<path d="" fill="#3D4347" transform="translate(0,0)"/>
<path d="" fill="#363E46" transform="translate(0,0)"/>
<path d="" fill="#2F3E47" transform="translate(0,0)"/>
<path d="" fill="#323A43" transform="translate(0,0)"/>
<path d="" fill="#3A4045" transform="translate(0,0)"/>
<path d="" fill="#343D45" transform="translate(0,0)"/>
<path d="" fill="#2F3947" transform="translate(0,0)"/>
<path d="M0 0 C2 1 2 1 2 1 Z " fill="#2E3A47" transform="translate(576,317)"/>
<path d="" fill="#383F44" transform="translate(0,0)"/>
<path d="M0 0 C2 1 2 1 2 1 Z " fill="#2D3544" transform="translate(604,264)"/>
<path d="M0 0 C2 1 2 1 2 1 Z " fill="#393E45" transform="translate(569,250)"/>
<path d="M0 0 C2 1 2 1 2 1 Z " fill="#354049" transform="translate(566,249)"/>
<path d="M0 0 C2 1 2 1 2 1 Z " fill="#3B4145" transform="translate(500,242)"/>
<path d="" fill="#6E4B15" transform="translate(0,0)"/>
<path d="" fill="#5C4019" transform="translate(0,0)"/>
<path d="" fill="#624519" transform="translate(0,0)"/>
<path d="" fill="#674919" transform="translate(0,0)"/>
<path d="" fill="#5B421A" transform="translate(0,0)"/>
<path d="" fill="#3F3D3C" transform="translate(0,0)"/>
<path d="" fill="#3F4042" transform="translate(0,0)"/>
<path d="" fill="#383B3C" transform="translate(0,0)"/>
<path d="" fill="#343534" transform="translate(0,0)"/>
<path d="" fill="#3C3E3C" transform="translate(0,0)"/>
<path d="" fill="#39393E" transform="translate(0,0)"/>
<path d="" fill="#353B42" transform="translate(0,0)"/>
<path d="" fill="#3C3B3E" transform="translate(0,0)"/>
<path d="" fill="#3D3D3E" transform="translate(0,0)"/>
<path d="" fill="#353B41" transform="translate(0,0)"/>
<path d="" fill="#373C41" transform="translate(0,0)"/>
<path d="" fill="#3A3F42" transform="translate(0,0)"/>
<path d="" fill="#37383F" transform="translate(0,0)"/>
<path d="" fill="#3D3E41" transform="translate(0,0)"/>
<path d="" fill="#363B41" transform="translate(0,0)"/>
<path d="" fill="#3B3D41" transform="translate(0,0)"/>
<path d="" fill="#2F353F" transform="translate(0,0)"/>
<path d="" fill="#363C42" transform="translate(0,0)"/>
<path d="" fill="#3E3D3C" transform="translate(0,0)"/>
<path d="" fill="#2D3541" transform="translate(0,0)"/>
<path d="" fill="#37393A" transform="translate(0,0)"/>
<path d="" fill="#383F3F" transform="translate(0,0)"/>
<path d="" fill="#3C3B3A" transform="translate(0,0)"/>
<path d="" fill="#353E45" transform="translate(0,0)"/>
<path d="" fill="#2B3B48" transform="translate(0,0)"/>
<path d="" fill="#303945" transform="translate(0,0)"/>
<path d="" fill="#273A4A" transform="translate(0,0)"/>
<path d="" fill="#403E3D" transform="translate(0,0)"/>
<path d="" fill="#3D4044" transform="translate(0,0)"/>
<path d="" fill="#3B3F43" transform="translate(0,0)"/>
<path d="" fill="#3D4146" transform="translate(0,0)"/>
<path d="" fill="#3D3D3D" transform="translate(0,0)"/>
<path d="" fill="#363A47" transform="translate(0,0)"/>
<path d="" fill="#393F41" transform="translate(0,0)"/>
<path d="" fill="#33383D" transform="translate(0,0)"/>
<path d="" fill="#2A3C4E" transform="translate(0,0)"/>
<path d="" fill="#293A4B" transform="translate(0,0)"/>
<path d="" fill="#323A48" transform="translate(0,0)"/>
<path d="" fill="#2D3C4C" transform="translate(0,0)"/>
<path d="" fill="#41413D" transform="translate(0,0)"/>
<path d="" fill="#43403E" transform="translate(0,0)"/>
<path d="" fill="#313C45" transform="translate(0,0)"/>
<path d="" fill="#354147" transform="translate(0,0)"/>
<path d="" fill="#313C46" transform="translate(0,0)"/>
<path d="" fill="#353F47" transform="translate(0,0)"/>
<path d="" fill="#333B49" transform="translate(0,0)"/>
<path d="" fill="#2E3945" transform="translate(0,0)"/>
<path d="" fill="#2C3C4B" transform="translate(0,0)"/>
<path d="" fill="#343B45" transform="translate(0,0)"/>
<path d="" fill="#2F3745" transform="translate(0,0)"/>
<path d="" fill="#343B44" transform="translate(0,0)"/>
<path d="" fill="#343D44" transform="translate(0,0)"/>
<path d="" fill="#403E40" transform="translate(0,0)"/>
<path d="" fill="#41413E" transform="translate(0,0)"/>
<path d="" fill="#303C47" transform="translate(0,0)"/>
<path d="" fill="#2E3A45" transform="translate(0,0)"/>
<path d="" fill="#3A3B3F" transform="translate(0,0)"/>
<path d="" fill="#273544" transform="translate(0,0)"/>
<path d="" fill="#2C3B48" transform="translate(0,0)"/>
<path d="" fill="#2E3B4B" transform="translate(0,0)"/>
<path d="" fill="#333D4A" transform="translate(0,0)"/>
<path d="" fill="#303C48" transform="translate(0,0)"/>
<path d="" fill="#2E3E48" transform="translate(0,0)"/>
<path d="" fill="#2E3B48" transform="translate(0,0)"/>
<path d="" fill="#33404A" transform="translate(0,0)"/>
<path d="" fill="#2C3B47" transform="translate(0,0)"/>
<path d="" fill="#40403E" transform="translate(0,0)"/>
<path d="" fill="#2D3847" transform="translate(0,0)"/>
<path d="" fill="#2D3C4C" transform="translate(0,0)"/>
<path d="" fill="#2D3A49" transform="translate(0,0)"/>
<path d="" fill="#333E49" transform="translate(0,0)"/>
<path d="" fill="#2F3F4C" transform="translate(0,0)"/>
<path d="" fill="#2F3B4C" transform="translate(0,0)"/>
<path d="" fill="#283749" transform="translate(0,0)"/>
<path d="" fill="#31404D" transform="translate(0,0)"/>
<path d="" fill="#393E42" transform="translate(0,0)"/>
<path d="" fill="#2B3A4A" transform="translate(0,0)"/>
<path d="" fill="#3A4142" transform="translate(0,0)"/>
<path d="" fill="#2E4355" transform="translate(0,0)"/>
<path d="" fill="#2E4153" transform="translate(0,0)"/>
<path d="" fill="#2C3C4B" transform="translate(0,0)"/>
<path d="" fill="#845919" transform="translate(0,0)"/>
<path d="" fill="#2E3C4B" transform="translate(0,0)"/>
<path d="" fill="#303C4B" transform="translate(0,0)"/>
<path d="" fill="#303C4B" transform="translate(0,0)"/>
<path d="" fill="#31404C" transform="translate(0,0)"/>
<path d="" fill="#3D4245" transform="translate(0,0)"/>
<path d="" fill="#2E404F" transform="translate(0,0)"/>
<path d="" fill="#2F3E4D" transform="translate(0,0)"/>
<path d="" fill="#3D4044" transform="translate(0,0)"/>
<path d="" fill="#2F4255" transform="translate(0,0)"/>
<path d="" fill="#313943" transform="translate(0,0)"/>
<path d="" fill="#323F4C" transform="translate(0,0)"/>
<path d="" fill="#3B3943" transform="translate(0,0)"/>
<path d="" fill="#2C3E53" transform="translate(0,0)"/>
<path d="" fill="#263A4B" transform="translate(0,0)"/>
<path d="" fill="#25394D" transform="translate(0,0)"/>
<path d="" fill="#353F4D" transform="translate(0,0)"/>
<path d="" fill="#2C3A49" transform="translate(0,0)"/>
<path d="" fill="#313D4C" transform="translate(0,0)"/>
<path d="" fill="#2C3F52" transform="translate(0,0)"/>
<path d="" fill="#35404E" transform="translate(0,0)"/>
<path d="" fill="#35424E" transform="translate(0,0)"/>
<path d="" fill="#3A3E44" transform="translate(0,0)"/>
<path d="" fill="#2C3E50" transform="translate(0,0)"/>
<path d="" fill="#3C4042" transform="translate(0,0)"/>
<path d="" fill="#2F414F" transform="translate(0,0)"/>
<path d="" fill="#2E4354" transform="translate(0,0)"/>
<path d="" fill="#334455" transform="translate(0,0)"/>
<path d="" fill="#35414D" transform="translate(0,0)"/>
<path d="" fill="#404140" transform="translate(0,0)"/>
<path d="" fill="#36414D" transform="translate(0,0)"/>
<path d="" fill="#3D403F" transform="translate(0,0)"/>
<path d="" fill="#3F4344" transform="translate(0,0)"/>
<path d="" fill="#344352" transform="translate(0,0)"/>
<path d="" fill="#334351" transform="translate(0,0)"/>
<path d="" fill="#303E4D" transform="translate(0,0)"/>
<path d="" fill="#314252" transform="translate(0,0)"/>
<path d="" fill="#2A3B4D" transform="translate(0,0)"/>
<path d="" fill="#29394C" transform="translate(0,0)"/>
<path d="" fill="#37424D" transform="translate(0,0)"/>
<path d="" fill="#3E4143" transform="translate(0,0)"/>
<path d="" fill="#414443" transform="translate(0,0)"/>
<path d="" fill="#424343" transform="translate(0,0)"/>
<path d="" fill="#36414D" transform="translate(0,0)"/>
<path d="" fill="#35424D" transform="translate(0,0)"/>
<path d="" fill="#3F403F" transform="translate(0,0)"/>
<path d="" fill="#29374C" transform="translate(0,0)"/>
<path d="" fill="#3A434D" transform="translate(0,0)"/>
<path d="" fill="#2F3F50" transform="translate(0,0)"/>
<path d="" fill="#343C48" transform="translate(0,0)"/>
<path d="" fill="#2C3E52" transform="translate(0,0)"/>
<path d="" fill="#343F4B" transform="translate(0,0)"/>
<path d="" fill="#38424D" transform="translate(0,0)"/>
<path d="" fill="#2D3F4F" transform="translate(0,0)"/>
<path d="" fill="#293D50" transform="translate(0,0)"/>
<path d="" fill="#2B3D50" transform="translate(0,0)"/>
<path d="" fill="#3B4548" transform="translate(0,0)"/>
<path d="" fill="#2C3E4F" transform="translate(0,0)"/>
<path d="" fill="#36414C" transform="translate(0,0)"/>
<path d="" fill="#34404D" transform="translate(0,0)"/>
<path d="" fill="#2D3F51" transform="translate(0,0)"/>
<path d="" fill="#42474C" transform="translate(0,0)"/>
<path d="" fill="#364350" transform="translate(0,0)"/>
<path d="" fill="#38424E" transform="translate(0,0)"/>
<path d="" fill="#2F3B48" transform="translate(0,0)"/>
<path d="" fill="#434545" transform="translate(0,0)"/>
<path d="" fill="#364552" transform="translate(0,0)"/>
<path d="" fill="#434744" transform="translate(0,0)"/>
<path d="" fill="#3D454D" transform="translate(0,0)"/>
<path d="" fill="#2B3C4C" transform="translate(0,0)"/>
<path d="" fill="#3B4957" transform="translate(0,0)"/>
<path d="" fill="#334450" transform="translate(0,0)"/>
<path d="" fill="#2F3D4C" transform="translate(0,0)"/>
<path d="" fill="#32414F" transform="translate(0,0)"/>
<path d="" fill="#3A454C" transform="translate(0,0)"/>
<path d="" fill="#3D4851" transform="translate(0,0)"/>
<path d="" fill="#2E3E4B" transform="translate(0,0)"/>
<path d="" fill="#2A3B4E" transform="translate(0,0)"/>
<path d="" fill="#253748" transform="translate(0,0)"/>
<path d="" fill="#414344" transform="translate(0,0)"/>
<path d="" fill="#3E4446" transform="translate(0,0)"/>
<path d="" fill="#2E3E4D" transform="translate(0,0)"/>
<path d="" fill="#41464B" transform="translate(0,0)"/>
<path d="" fill="#3E474B" transform="translate(0,0)"/>
<path d="" fill="#3D4349" transform="translate(0,0)"/>
<path d="" fill="#404549" transform="translate(0,0)"/>
<path d="" fill="#41413D" transform="translate(0,0)"/>
<path d="" fill="#423F3D" transform="translate(0,0)"/>
<path d="" fill="#3E403E" transform="translate(0,0)"/>
<path d="" fill="#3D3F46" transform="translate(0,0)"/>
<path d="" fill="#3E3E3D" transform="translate(0,0)"/>
<path d="" fill="#42423F" transform="translate(0,0)"/>
<path d="" fill="#424242" transform="translate(0,0)"/>
<path d="" fill="#3E4040" transform="translate(0,0)"/>
<path d="" fill="#3B4042" transform="translate(0,0)"/>
<path d="" fill="#444646" transform="translate(0,0)"/>
<path d="" fill="#3B4246" transform="translate(0,0)"/>
<path d="" fill="#313B47" transform="translate(0,0)"/>
<path d="" fill="#3C403E" transform="translate(0,0)"/>
<path d="" fill="#3E4040" transform="translate(0,0)"/>
<path d="" fill="#36434D" transform="translate(0,0)"/>
<path d="" fill="#36454D" transform="translate(0,0)"/>
<path d="" fill="#37434C" transform="translate(0,0)"/>
<path d="" fill="#364350" transform="translate(0,0)"/>
<path d="" fill="#3A3C3C" transform="translate(0,0)"/>
<path d="" fill="#393E41" transform="translate(0,0)"/>
<path d="" fill="#3D3F3C" transform="translate(0,0)"/>
<path d="" fill="#373B44" transform="translate(0,0)"/>
<path d="" fill="#383D48" transform="translate(0,0)"/>
<path d="" fill="#3C3D3E" transform="translate(0,0)"/>
<path d="" fill="#34414E" transform="translate(0,0)"/>
<path d="" fill="#414340" transform="translate(0,0)"/>
<path d="" fill="#46433A" transform="translate(0,0)"/>
<path d="" fill="#2D3F4E" transform="translate(0,0)"/>
<path d="" fill="#32404F" transform="translate(0,0)"/>
<path d="" fill="#3E4348" transform="translate(0,0)"/>
<path d="" fill="#353F48" transform="translate(0,0)"/>
<path d="" fill="#434344" transform="translate(0,0)"/>
<path d="" fill="#394044" transform="translate(0,0)"/>
<path d="" fill="#3D4348" transform="translate(0,0)"/>
<path d="" fill="#32414E" transform="translate(0,0)"/>
<path d="" fill="#434441" transform="translate(0,0)"/>
<path d="" fill="#35404E" transform="translate(0,0)"/>
<path d="" fill="#3C4448" transform="translate(0,0)"/>
<path d="" fill="#3A3E3F" transform="translate(0,0)"/>
<path d="" fill="#35404D" transform="translate(0,0)"/>
<path d="" fill="#35414B" transform="translate(0,0)"/>
<path d="" fill="#414447" transform="translate(0,0)"/>
<path d="" fill="#313C48" transform="translate(0,0)"/>
<path d="" fill="#3B4043" transform="translate(0,0)"/>
<path d="" fill="#363C42" transform="translate(0,0)"/>
<path d="" fill="#3A4347" transform="translate(0,0)"/>
<path d="" fill="#7B561D" transform="translate(0,0)"/>
<path d="" fill="#323D48" transform="translate(0,0)"/>
<path d="" fill="#394146" transform="translate(0,0)"/>
<path d="" fill="#333E45" transform="translate(0,0)"/>
<path d="" fill="#394147" transform="translate(0,0)"/>
<path d="" fill="#323E48" transform="translate(0,0)"/>
<path d="" fill="#363E41" transform="translate(0,0)"/>
<path d="" fill="#333C47" transform="translate(0,0)"/>
<path d="" fill="#404546" transform="translate(0,0)"/>
<path d="" fill="#374248" transform="translate(0,0)"/>
<path d="" fill="#3C4449" transform="translate(0,0)"/>
<path d="" fill="#3D3F43" transform="translate(0,0)"/>
<path d="" fill="#373D44" transform="translate(0,0)"/>
<path d="" fill="#313B46" transform="translate(0,0)"/>
<path d="" fill="#374046" transform="translate(0,0)"/>
<path d="" fill="#3B4249" transform="translate(0,0)"/>
<path d="" fill="#3A454A" transform="translate(0,0)"/>
<path d="" fill="#394248" transform="translate(0,0)"/>
<path d="" fill="#3A4247" transform="translate(0,0)"/>
<path d="" fill="#383D45" transform="translate(0,0)"/>
<path d="" fill="#323F4D" transform="translate(0,0)"/>
<path d="" fill="#323D48" transform="translate(0,0)"/>
<path d="" fill="#2D3945" transform="translate(0,0)"/>
<path d="" fill="#333F4C" transform="translate(0,0)"/>
<path d="" fill="#383C44" transform="translate(0,0)"/>
<path d="" fill="#303E4B" transform="translate(0,0)"/>
<path d="" fill="#2E3B47" transform="translate(0,0)"/>
<path d="" fill="#3D4243" transform="translate(0,0)"/>
<path d="" fill="#2D3B45" transform="translate(0,0)"/>
<path d="" fill="#374049" transform="translate(0,0)"/>
<path d="" fill="#3A4147" transform="translate(0,0)"/>
<path d="" fill="#3B4046" transform="translate(0,0)"/>
<path d="" fill="#313E4A" transform="translate(0,0)"/>
<path d="" fill="#393F46" transform="translate(0,0)"/>
<path d="" fill="#3A3E45" transform="translate(0,0)"/>
<path d="" fill="#2D394B" transform="translate(0,0)"/>
<path d="" fill="#2C3C49" transform="translate(0,0)"/>
<path d="" fill="#3C444A" transform="translate(0,0)"/>
<path d="" fill="#313B4B" transform="translate(0,0)"/>
<path d="" fill="#343D4B" transform="translate(0,0)"/>
<path d="" fill="#313D4A" transform="translate(0,0)"/>
<path d="" fill="#303C4C" transform="translate(0,0)"/>
<path d="" fill="#2D3B4A" transform="translate(0,0)"/>
<path d="" fill="#384147" transform="translate(0,0)"/>
<path d="" fill="#2F3D4A" transform="translate(0,0)"/>
<path d="" fill="#3C4349" transform="translate(0,0)"/>
<path d="" fill="#373F49" transform="translate(0,0)"/>
<path d="" fill="#3A3F49" transform="translate(0,0)"/>
<path d="" fill="#384048" transform="translate(0,0)"/>
<path d="" fill="#374147" transform="translate(0,0)"/>
<path d="" fill="#303B47" transform="translate(0,0)"/>
<path d="" fill="#313C4A" transform="translate(0,0)"/>
<path d="" fill="#2E3B45" transform="translate(0,0)"/>
<path d="" fill="#333C47" transform="translate(0,0)"/>
<path d="" fill="#343D47" transform="translate(0,0)"/>
<path d="" fill="#2E3845" transform="translate(0,0)"/>
<path d="" fill="#313A46" transform="translate(0,0)"/>
<path d="" fill="#2D3C4A" transform="translate(0,0)"/>
<path d="" fill="#815816" transform="translate(0,0)"/>
<path d="" fill="#2B3C4B" transform="translate(0,0)"/>
<path d="" fill="#373F45" transform="translate(0,0)"/>
<path d="" fill="#283747" transform="translate(0,0)"/>
<path d="" fill="#2D3C4B" transform="translate(0,0)"/>
<path d="" fill="#2E3943" transform="translate(0,0)"/>
<path d="" fill="#2C3949" transform="translate(0,0)"/>
<path d="" fill="#373F45" transform="translate(0,0)"/>
<path d="" fill="#373F46" transform="translate(0,0)"/>
<path d="" fill="#303C4B" transform="translate(0,0)"/>
<path d="" fill="#353E43" transform="translate(0,0)"/>
<path d="" fill="#504736" transform="translate(0,0)"/>
<path d="" fill="#2A3745" transform="translate(0,0)"/>
<path d="" fill="#2D3C4B" transform="translate(0,0)"/>
<path d="" fill="#2F3B44" transform="translate(0,0)"/>
<path d="" fill="#2D3C48" transform="translate(0,0)"/>
<path d="" fill="#2E3847" transform="translate(0,0)"/>
<path d="" fill="#363F46" transform="translate(0,0)"/>
<path d="" fill="#2C3844" transform="translate(0,0)"/>
<path d="" fill="#3A3E46" transform="translate(0,0)"/>
<path d="" fill="#2B3746" transform="translate(0,0)"/>
<path d="" fill="#2F3A48" transform="translate(0,0)"/>
<path d="" fill="#383E44" transform="translate(0,0)"/>
<path d="" fill="#2E3A48" transform="translate(0,0)"/>
<path d="" fill="#323F44" transform="translate(0,0)"/>
<path d="" fill="#363F44" transform="translate(0,0)"/>
<path d="" fill="#2D3A45" transform="translate(0,0)"/>
<path d="" fill="#2E3B48" transform="translate(0,0)"/>
<path d="" fill="#2E3B47" transform="translate(0,0)"/>
<path d="" fill="#2D3A4B" transform="translate(0,0)"/>
<path d="" fill="#2D3641" transform="translate(0,0)"/>
<path d="" fill="#2F3B49" transform="translate(0,0)"/>
<path d="" fill="#313B46" transform="translate(0,0)"/>
<path d="" fill="#313C49" transform="translate(0,0)"/>
<path d="" fill="#353D43" transform="translate(0,0)"/>
<path d="" fill="#363E44" transform="translate(0,0)"/>
<path d="" fill="#2F3A47" transform="translate(0,0)"/>
<path d="" fill="#2F3948" transform="translate(0,0)"/>
<path d="" fill="#2F3A44" transform="translate(0,0)"/>
<path d="" fill="#353E48" transform="translate(0,0)"/>
<path d="" fill="#2C3943" transform="translate(0,0)"/>
<path d="" fill="#353E43" transform="translate(0,0)"/>
<path d="" fill="#2C353D" transform="translate(0,0)"/>
<path d="" fill="#343E47" transform="translate(0,0)"/>
<path d="" fill="#363E43" transform="translate(0,0)"/>
<path d="" fill="#3A4144" transform="translate(0,0)"/>
<path d="" fill="#384149" transform="translate(0,0)"/>
<path d="" fill="#32393E" transform="translate(0,0)"/>
<path d="" fill="#363E44" transform="translate(0,0)"/>
<path d="" fill="#3B4246" transform="translate(0,0)"/>
<path d="" fill="#323C45" transform="translate(0,0)"/>
<path d="" fill="#384043" transform="translate(0,0)"/>
<path d="" fill="#363C44" transform="translate(0,0)"/>
<path d="" fill="#333941" transform="translate(0,0)"/>
<path d="" fill="#3C4144" transform="translate(0,0)"/>
<path d="" fill="#3C4246" transform="translate(0,0)"/>
<path d="" fill="#343A40" transform="translate(0,0)"/>
<path d="" fill="#393E47" transform="translate(0,0)"/>
<path d="" fill="#3D4146" transform="translate(0,0)"/>
<path d="" fill="#333E47" transform="translate(0,0)"/>
<path d="" fill="#393C46" transform="translate(0,0)"/>
<path d="" fill="#3C4246" transform="translate(0,0)"/>
<path d="" fill="#3A4146" transform="translate(0,0)"/>
<path d="" fill="#3D4348" transform="translate(0,0)"/>
<path d="" fill="#353A40" transform="translate(0,0)"/>
<path d="" fill="#3B3E42" transform="translate(0,0)"/>
<path d="" fill="#3E4447" transform="translate(0,0)"/>
<path d="" fill="#775318" transform="translate(0,0)"/>
<path d="" fill="#7D5519" transform="translate(0,0)"/>
<path d="" fill="#875B17" transform="translate(0,0)"/>
<path d="" fill="#855B16" transform="translate(0,0)"/>
<path d="" fill="#835917" transform="translate(0,0)"/>
<path d="" fill="#845917" transform="translate(0,0)"/>
</svg>
