<svg xmlns="http://www.w3.org/2000/svg" height="800" width="1200" viewBox="-13.28736 -31.813925 115.15712 190.88355"><defs><clipPath id="a" clipPathUnits="userSpaceOnUse"><path d="M0 0h595.276v841.89H0z"/></clipPath></defs><g clip-path="url(#a)" transform="matrix(1.25 0 0 -1.25 -611.2207 1008.071)"><path d="M539.6115 725.488h-10.023l.015.158c.006.057.63 5.691 8.693 5.966.402.011.722-.105.951-.345.399-.414.367-1.048.364-1.101zm9.749 7.866s-.009.091-.009.172c0 .065.007.12.026.123-.011-.005-.26-.142-.266-.147 0 0-.756-.419-.76-.42l-.745-.337c-.095-.046-.216-.101-.235-.665l-.006-.143v-6.54h-5.701l.001 5.875c0 .897-.214 1.535-.655 1.949-.446.42-1.133.603-2.054.546-.051.003-5.068.164-9.028-3.111l-.744-.847-.257-.333-.147.392c-.146.384-.385.763-.77 1.223 0 0-.247.269-.25.272 0 0-.104.089-.206.177.03-.274.09-.927.09-1.807v-4.242l-3.212-.003v14.62c0 .236-.021.315.014.318 0 0-.265-.145-.273-.15 0 0-.755-.42-.759-.422l-.745-.338c-.1-.045-.237-.107-.237-.786l-.001-13.13c-.023-.738.006-1.086.387-1.581.201-.263.578-.752 1.662-.752h3.075l-.002-.223c-.013-1.091-.585-2.949-.597-2.986 0 0-.023-.066-.044-.123.183.112.457.309.777.597.882 1.047 1.302 1.985 1.498 2.587l.048.148h13.305l4.562.003c.01-.002.898-.054 1.456.359.603.449.805.802.805 2.003 0 0-.005 4.211-.005 5.414 0 .201.001 2.265.002 2.308m-39.9029-1.1511c.001 0 .002 0 .003-.001l-.004.002zm-2.102-6.661v4.699c0 .678.137.741.237.787l.745.338c.003.002.934.518.992.549.012-.041.024-.11.024-.283l.002-6.554c0-.468-.243-.997-.619-1.347-.542-.502-1.138-.501-1.531-.498l-11.039-.003c-.188.003-1.882.081-2.872 1.778-.433.745-.65 1.598-.65 2.55 0 .669.106 1.386.322 2.149.171.568.328.809.437.923.008-.063.015-.121.029-.215.002-.016.287-2.223.794-3.151.882-2.005 3.456-1.867 3.481-1.863-.024-.002 9.504-.004 9.504-.004h.144zm11.8672 14.7567v.001zm-2.101-2.038l-.001.075c0 .68.131.739.237.787.001 0 .745.338.745.338.004.001.922.51.984.545.019-.047.033-.124.033-.284v-7.585c0-6.82-3.16-8.77-3.411-8.915h-3.009c1.037.699 1.929 1.48 2.603 2.355l.052.068-.002.121-3.58 7.963c-.009.018-.497 1.111-.497 2.362 0 .862.253 1.789 1.031 2.504.007-.093.014-.181.014-.181.071-.749.26-2.097.784-3.149.023-.044 2.202-4.219 3.063-6.317l.261-.792.142-.431.135.422.068.219c.292.93.341 1.635.347 1.964h.001s.003.078.003.091v.144l-.003.001zm-18.6739-26.6969c.529.061.922.158 1.112.35.192.191.171.583.045.881-.403.943-1.489 1.63-2.876 1.63-2.123 0-3.621-1.367-3.621-3.459 0 0 5.076.568 5.34.598m1.211-1.488l-6.558-.672c.259-2.07 1.804-2.845 3.45-2.849h4.203c.599 0 .996-.403.996-.979 0-.277-.001-.84-.001-.84h-5.24c-2.923 0-5.378 1.901-5.378 5.796 0 3.32 2.322 5.577 5.62 5.577 2.369 0 4.293-1.447 4.816-3.629.316-1.326-.4-2.234-1.908-2.404m22.8866 6.0276c.623 0 1.07-.289 1.07-.912 0-.625-.447-.914-1.07-.914h-4.569c-.958-.073-1.079-1.035-1.001-1.629.026-.193.117-.356.251-.469.299-.253.816-.343 1.353-.436l3.475-.611c1.827-.334 2.517-1.261 2.517-2.91 0-2.563-1.58-3.511-4.054-3.511h-5.772s.001.637.001.914c0 .622.424.912 1.071.912h4.566c1.783 0 2.242.548 2.24 1.529-.002.889-.247 1.215-1.438 1.416l-3.52.58c-1.782.289-2.556 1.226-2.652 2.421-.141 1.753.585 3.62 2.987 3.62zm10.6109-7.3028c0-1.938-1.091-2.63-2.943-2.63-1.67 0-2.627.601-2.627 1.939 0 .994.845 1.637 1.855 1.815 1.009.179 2.547.247 3.715.515zm1.959 3.297c0 1.983-.535 4.011-3.474 4.011h-4.123c-.647 0-1.07-.29-1.07-.913 0-.625.423-.915 1.07-.915h3.833c1.359 0 1.805-.313 1.805-1.269v-.291c-.079-.584-.739-.722-1.07-.8-2.753-.647-6.461.063-6.461-3.901 0-2.115 1.803-3.364 4.278-3.364.028 0 2.484-.121 3.389 1.119 0 0 0-.038.006-.107.061-.625.358-.954.997-.954h.814zm12.9282-3.297c0-1.938-1.092-2.63-2.943-2.63-1.67 0-2.628.601-2.628 1.939 0 .994.846 1.637 1.855 1.815 1.009.179 2.547.247 3.716.515zm1.96 3.297c0 1.983-.536 4.011-3.476 4.011h-4.123c-.646 0-1.069-.29-1.069-.913 0-.625.423-.915 1.069-.915h3.834c1.359 0 1.805-.313 1.805-1.269v-.291c-.08-.584-.738-.722-1.07-.8-2.754-.647-6.461.063-6.461-3.901 0-2.115 1.803-3.364 4.278-3.364.028 0 2.484-.121 3.388 1.119 0 0 0-.038.007-.107.06-.625.357-.954.996-.954h.816zm-11.0054 7.0961h-1.097c-.952 0-.864-.863-.864-.863v-10.581l-.005-3.032 1.966-.005zm-30.8565-12.7749c-1.492 0-2.047.067-2.047 1.156v6.706h1.735c.623 0 1.069.289 1.069.912 0 .622-.446.911-1.069.911h-1.735v3.024l-.837.002c-.166-.003-.281-.009-.408-.024-.794-.085-.715-.856-.715-.856v-2.146h-.534c-.621 0-1.07-.289-1.07-.911 0-.623.449-.912 1.07-.912h.534v-7.127c0-2.403 1.671-2.434 4.007-2.434.386 0 1.157.003 1.157.003s-.001.529-.001.783c0 .556-.444.913-1.156.913m48.5225 0c-1.492 0-2.046.067-2.046 1.156v6.706h1.734c.624 0 1.069.289 1.069.912 0 .622-.445.911-1.069.911h-1.734v3.024l-.837.002c-.167-.003-.282-.009-.409-.024-.793-.085-.714-.856-.714-.856v-2.146h-.535c-.62 0-1.068-.289-1.068-.911 0-.623.448-.912 1.068-.912h.535v-7.127c0-2.403 1.67-2.434 4.006-2.434.386 0 1.158.003 1.158.003s-.001.529-.001.783c0 .556-.445.913-1.157.913m-43.7119-1.7036l-.004 11.382-1.097.006c-.738-.011-.864-.474-.864-.873v-10.515zm-1.1993 12.249c.477 0 .726-.014.99.232.208.192.209.534.209.926 0 .228-.004 1.001-.004 1.001h-1.101c-.74-.01-.861-.468-.861-.867 0-.153-.003-1.293-.003-1.293s.566.001.77.001" fill="#807f83"/><path d="M491.3258 799.2991c-2.891-3.764-2.962-9.958-1.041-17.63 2.696-10.811 7.356-21.733 9.527-29.028 2.501-7.459 2.517-11.287 3.487-11.787.095-.049.207-.071.345-.071 1.274 0 4.487 1.995 11.284 4.051 7.201 2.453 18.806 4.982 29.185 9.035 7.306 2.86 12.299 6.472 13.74 10.964-2.321-3.139-6.566-5.776-12.174-7.969-10.381-4.054-21.982-6.584-29.187-9.034-6.794-2.059-10.002-4.055-11.28-4.055-.139 0-.254.026-.35.075-.969.5-.985 4.321-3.489 11.788-2.172 7.289-6.826 18.214-9.526 29.026-1.473 5.893-1.774 10.916-.521 14.635m20.396-5.662c-1.669 0-3.178-.209-4.476-.643-5.058-1.555-7.06-6.276-6.669-12.843.395-6.558 2.426-13.365 3.935-18.314 1.662-5.024 2.797-8.193 4.86-9.254.621-.32 1.346-.462 2.198-.462 1.977 0 4.625.768 8.163 1.855 4.907 1.634 11.635 3.921 17.213 7.401 5.579 3.476 8.275 7.845 6.616 12.869-1.518 4.945-7.381 10.559-15.409 14.701-5.91 3.052-11.784 4.69-16.431 4.69m1.425-39.9c-1.157 0-2.145.186-2.9.578-3.657 1.891-6.555 11.02-6.504 20.404.024 6.126 3.905 9.501 9.721 9.501 3.105 0 6.766-.965 10.683-2.988 11.251-5.808 14.146-14.939 6.508-20.406-6.057-4.346-13.05-7.089-17.508-7.089" fill="#c2cd23"/><path d="M503.6896 806.4568c-2.198 0-4.143-.269-5.765-.821-3.427-1.039-5.555-3.235-6.599-6.337 1.185 1.541 2.844 2.676 5.032 3.337 1.629.556 3.578.824 5.783.824 7.547 0 18.08-3.155 28.954-8.769 14.055-7.257 24.43-16.431 26.597-23.721.743-2.209.763-4.251.161-6.137 1.972 2.669 2.554 5.7 1.404 9.131-2.166 7.288-12.545 16.46-26.597 23.717-10.881 5.622-21.424 8.776-28.97 8.776" fill="#78a22f"/><path d="M503.6896 806.4568c-2.198 0-4.143-.269-5.765-.821-3.427-1.039-5.555-3.235-6.599-6.337 1.185 1.541 2.844 2.676 5.032 3.337 1.629.556 3.578.824 5.783.824 7.547 0 18.08-3.155 28.954-8.769 14.055-7.257 24.43-16.431 26.597-23.721.743-2.209.763-4.251.161-6.137 1.972 2.669 2.554 5.7 1.404 9.131-2.166 7.288-12.545 16.46-26.597 23.717-10.881 5.622-21.424 8.776-28.97 8.776" fill="#b3c98b"/><path d="M502.1412 803.4597c-2.205 0-4.154-.268-5.783-.825-2.188-.66-3.848-1.795-5.032-3.336-1.253-3.719-.952-8.742.52-14.635 2.701-10.812 7.355-21.737 9.527-29.025 2.504-7.468 2.52-11.289 3.489-11.789.095-.049.211-.075.349-.075 1.278 0 4.486 1.997 11.281 4.055 7.204 2.45 18.805 4.98 29.187 9.035 5.608 2.192 9.853 4.83 12.174 7.968.601 1.886.582 3.928-.161 6.136-2.167 7.291-12.543 16.465-26.597 23.722-10.874 5.614-21.407 8.769-28.954 8.769m9.429-51.339c-.852 0-1.578.143-2.198.463-2.064 1.061-3.198 4.23-4.86 9.254-1.509 4.948-3.541 11.755-3.935 18.314-.391 6.567 1.61 11.287 6.669 12.842 1.298.434 2.807.643 4.475.643 4.647 0 10.522-1.638 16.432-4.69 8.028-4.142 13.89-9.756 15.409-14.7 1.659-5.025-1.037-9.393-6.617-12.87-5.577-3.48-12.306-5.767-17.213-7.4-3.537-1.088-6.186-1.856-8.162-1.856" fill="#78a22f"/><path d="M552.7863 727.6316l-.002 10.769c.004.681.133.74.237.788l.746.337c.005.002 1.034.574 1.034.574-.016-.002-.02-.019-.02-.059 0-.048.005-.125.005-.246v-6.636l.002-.002v-9.898h-2.002zm-53.1319 4.3242c.481 0 .731-.013.997.234.208.193.209.538.209.934 0 .226-.001 1.004-.001 1.004h-1.111c-.743-.01-.865-.468-.865-.871 0-.156.001-1.301.001-1.301zm2.5938 0c.48 0 .73-.013.996.234.209.193.209.538.209.934v1.004h-1.112c-.743-.01-.864-.468-.864-.871v-1.301zm43.3716 3.5322c.48 0 .73-.014.996.233.209.195.21.538.21.934 0 .228-.001 1.005-.001 1.005h-1.112c-.742-.01-.866-.469-.866-.871 0-.156.001-1.302.001-1.302s.567.001.772.001m2.5903 0c.482 0 .733-.014.998.233.209.195.21.538.21.934 0 .228-.001 1.005-.001 1.005h-1.112c-.741-.01-.865-.469-.865-.871 0-.156.001-1.302.001-1.302s.566.001.769.001" fill="#807f83"/></g></svg>