<?xml version="1.0" standalone="no"?>
<!DOCTYPE svg PUBLIC "-//W3C//DTD SVG 20010904//EN"
 "http://www.w3.org/TR/2001/REC-SVG-20010904/DTD/svg10.dtd">
<svg version="1.0" xmlns="http://www.w3.org/2000/svg"
 width="300.000000pt" height="299.000000pt" viewBox="0 0 300.000000 299.000000"
 preserveAspectRatio="xMidYMid meet">
<metadata>
Created by potrace 1.10, written by Peter Selinger 2001-2011
</metadata>
<g transform="translate(0.000000,299.000000) scale(0.100000,-0.100000)"
fill="#000000" stroke="none">
<path d="M1290 2973 c-415 -65 -749 -265 -1000 -598 -76 -100 -191 -331 -225
-450 -49 -170 -57 -251 -52 -475 4 -178 8 -219 31 -307 143 -565 582 -988
1151 -1111 115 -25 495 -25 610 0 292 63 551 205 758 415 212 214 347 466 406
760 19 90 29 244 16 231 -3 -2 -10 -29 -16 -59 -6 -30 -15 -74 -20 -99 -6 -25
-12 -56 -13 -70 -19 -132 -117 -376 -197 -492 -11 -14 -19 -29 -19 -32 0 -3
-8 -15 -17 -25 -29 -31 -43 -50 -43 -55 0 -6 -81 -95 -140 -154 -25 -25 -79
-71 -120 -104 -41 -32 -80 -63 -87 -68 -7 -6 -15 -10 -18 -10 -3 0 -24 -12
-48 -27 -138 -88 -316 -154 -511 -187 -81 -15 -389 -16 -466 -2 -171 30 -316
79 -450 151 -46 25 -87 45 -91 45 -4 0 -9 4 -11 8 -2 5 -28 25 -58 44 -30 20
-66 47 -80 59 -14 13 -49 44 -78 68 -45 37 -212 230 -212 244 0 3 -18 31 -39
63 -22 32 -37 62 -35 66 2 3 0 9 -5 13 -5 3 -21 29 -34 58 -107 226 -164 504
-145 707 10 108 18 161 28 190 4 14 18 61 29 105 52 201 155 396 295 560 104
122 240 238 367 315 36 21 169 85 209 99 19 7 44 17 55 21 64 27 187 55 285
67 25 2 47 9 48 14 2 5 20 9 40 9 21 0 44 5 52 10 15 10 -94 12 -150 3z"/>
<path d="M1541 2976 c3 -3 26 -9 50 -12 24 -3 49 -10 54 -14 6 -4 46 -13 90
-19 80 -12 253 -55 284 -70 9 -5 63 -31 121 -59 58 -28 139 -73 181 -100 74
-49 205 -163 264 -231 16 -20 39 -45 51 -56 17 -17 92 -128 141 -210 75 -126
134 -292 169 -475 22 -122 34 -173 39 -178 13 -13 3 141 -15 229 -120 590
-571 1048 -1155 1174 -74 16 -284 32 -274 21z"/>
<path d="M1216 2649 c-49 -26 -83 -65 -96 -109 -5 -20 -10 -171 -10 -338 -1
-167 -4 -310 -7 -318 -3 -8 -20 -14 -42 -15 -32 -1 -30 -2 17 -11 65 -12 66
-34 1 -31 -31 2 -40 -1 -29 -7 8 -5 23 -10 32 -10 10 0 20 -10 23 -22 2 -13 6
-136 7 -275 l3 -252 35 -36 c64 -66 68 -67 343 -65 266 1 269 1 322 55 40 40
44 64 45 335 0 223 -2 265 -15 280 -14 15 -13 18 12 31 16 8 37 22 47 32 11 9
25 17 30 17 12 0 53 37 103 92 38 43 66 95 59 111 -3 9 -5 8 -5 -1 -1 -17 -71
-110 -107 -143 -88 -79 -246 -150 -379 -168 -87 -12 -300 -13 -330 -2 -13 5
-20 19 -22 44 -2 35 1 39 45 61 121 63 248 198 321 344 45 90 34 98 -13 10
-22 -40 -44 -76 -50 -80 -7 -5 -7 -8 -1 -8 7 0 7 -3 0 -8 -6 -4 -23 -25 -39
-47 -64 -86 -191 -193 -228 -191 l-23 1 0 270 0 270 220 0 220 0 3 -66 3 -66
-28 4 c-27 5 -27 4 -8 -10 50 -37 405 -220 405 -209 0 5 -46 33 -102 62 -57
29 -113 61 -125 70 -20 15 -21 19 -8 36 10 14 14 49 15 127 0 126 -18 179 -76
223 l-35 28 -248 3 c-233 3 -249 2 -285 -18z m543 -33 c56 -29 65 -58 69 -203
2 -73 1 -133 -2 -133 -4 0 -25 12 -47 27 l-41 27 3 83 3 84 -257 2 -257 2 0
-498 0 -497 256 2 256 3 -1 142 -2 141 30 7 c17 4 33 11 36 16 22 35 26 -10
23 -268 -4 -387 17 -365 -357 -361 l-250 3 -31 30 c-16 16 -35 46 -40 67 -7
24 -10 255 -8 640 3 569 4 605 22 634 37 62 46 63 319 64 197 0 254 -3 276
-14z m-49 -935 c0 -85 -4 -122 -12 -128 -7 -4 -102 -9 -210 -10 -167 -3 -199
-1 -212 13 -12 12 -15 36 -13 117 l2 102 160 2 c88 1 183 6 210 11 28 5 56 10
63 11 9 1 12 -29 12 -118z"/>
<path d="M1477 1432 l-48 -3 3 -57 3 -57 53 -3 52 -3 0 60 c0 33 -3 61 -7 63
-5 2 -30 2 -56 0z m33 -46 c0 -2 -3 -11 -6 -20 -9 -23 -34 -20 -34 4 0 13 7
20 20 20 11 0 20 -2 20 -4z"/>
<path d="M1307 1403 c-4 -3 -7 -19 -7 -35 0 -24 4 -28 30 -28 28 0 30 3 30 35
0 30 -3 35 -23 35 -13 0 -27 -3 -30 -7z"/>
<path d="M1620 1376 c0 -33 2 -36 31 -36 28 0 30 2 27 33 -2 27 -8 33 -30 35
-26 3 -28 1 -28 -32z"/>
<path d="M1863 998 c-16 -18 -21 -39 -22 -93 -2 -38 -4 -71 -6 -73 -2 -2 -12
1 -23 7 -11 6 -37 13 -58 17 -22 3 -52 8 -69 11 -50 8 -143 -33 -167 -73 -11
-19 -25 -34 -31 -34 -6 0 -8 3 -4 6 11 11 -68 81 -106 93 -69 23 -182 -14
-217 -72 -11 -18 -20 -27 -20 -21 0 14 -43 64 -55 64 -4 0 -16 7 -26 16 -13
11 -37 16 -76 16 -91 0 -134 -23 -178 -92 -30 -47 -39 -91 -36 -175 2 -80 28
-141 78 -185 72 -63 204 -66 269 -5 l26 24 40 -32 c35 -28 46 -31 96 -29 97 3
116 3 150 2 33 -1 62 18 62 41 0 8 4 8 13 2 6 -5 38 -20 70 -33 76 -30 156
-25 216 15 l42 28 27 -26 c34 -33 95 -36 130 -8 21 18 22 26 22 154 0 118 2
136 19 151 20 18 53 12 44 -9 -2 -8 -2 -19 2 -25 4 -7 7 -62 6 -124 -2 -100 0
-115 19 -139 17 -22 30 -27 64 -27 74 0 81 16 82 190 1 194 -16 249 -90 287
-15 8 -52 15 -81 16 -59 1 -65 8 -65 78 0 49 -33 79 -86 79 -29 0 -46 -6 -61
-22z m115 -103 c-1 -52 -2 -95 0 -95 1 0 13 6 25 14 41 26 83 29 130 8 68 -30
76 -57 78 -253 l1 -164 -50 -3 -50 -3 2 149 c1 135 -1 152 -18 171 -23 25 -63
27 -94 5 -21 -15 -22 -21 -22 -170 l0 -154 -52 0 -53 0 0 295 0 295 53 0 54 0
-4 -95z m-956 -67 c35 -10 98 -66 98 -87 0 -5 -16 -21 -36 -36 -32 -24 -38
-26 -45 -12 -29 50 -82 63 -114 27 -20 -22 -32 -119 -21 -165 16 -64 88 -85
155 -44 18 11 34 19 35 17 1 -2 7 -22 13 -46 10 -39 9 -44 -11 -57 -35 -23
-109 -38 -148 -31 -96 18 -148 94 -148 218 0 119 35 183 116 212 49 18 58 19
106 4z m376 -10 c14 -7 35 -29 46 -48 19 -31 21 -55 24 -202 l4 -168 -46 0
c-34 0 -46 4 -46 15 0 19 -14 19 -30 0 -7 -8 -27 -17 -46 -21 -70 -13 -140 42
-150 116 -10 86 49 145 159 159 56 7 68 22 43 56 -19 26 -77 25 -115 -3 l-29
-21 -10 27 c-6 15 -13 35 -17 44 -5 12 2 21 24 32 68 36 134 40 189 14z m370
0 c24 -6 46 -17 49 -25 4 -10 -11 -65 -23 -81 -1 -2 -19 6 -40 17 -68 37 -141
22 -132 -26 2 -13 26 -25 80 -43 95 -31 117 -51 124 -116 11 -88 -32 -137
-129 -150 -47 -7 -137 14 -171 39 -18 13 -18 15 -1 60 l17 46 35 -26 c24 -19
50 -28 88 -31 46 -4 54 -2 64 17 19 35 -1 57 -73 76 -80 22 -114 49 -126 98
-17 76 21 138 95 156 42 10 72 7 143 -11z m-588 -104 l21 -37 -29 -31 c-16
-17 -37 -48 -46 -69 -11 -25 -23 -37 -34 -36 -9 2 -28 -1 -42 -6 -37 -13 -94
-6 -104 13 -5 9 -11 37 -13 63 -3 38 1 52 20 75 l25 28 36 -32 c36 -31 56 -40
56 -24 0 4 18 18 40 31 21 13 39 27 38 30 -1 13 2 31 6 31 2 0 14 -16 26 -36z
m660 -46 c-1 -36 -3 -40 -13 -27 -7 9 -23 19 -36 24 l-23 7 28 19 c40 26 44
25 44 -23z m-275 -100 c5 -4 34 -15 63 -23 28 -9 52 -18 52 -21 0 -8 -53 -1
-67 9 -7 5 -35 10 -63 10 l-50 1 0 49 0 49 27 -34 c15 -18 32 -36 38 -40z"/>
<path d="M1310 593 c-73 -14 -84 -107 -12 -105 55 1 72 18 72 67 0 48 -1 48
-60 38z"/>
</g>
</svg>
