<?xml version="1.0" encoding="iso-8859-1"?>
<!-- Uploaded to: SVG Repo, www.svgrepo.com, Generator: SVG Repo Mixer Tools -->
<svg fill="#000000" version="1.1" id="Layer_1" xmlns="http://www.w3.org/2000/svg" xmlns:xlink="http://www.w3.org/1999/xlink" 
	 viewBox="0 0 470.996 470.996" xml:space="preserve">
<g>
	<g>
		<path d="M443.544,383.102c-12.404,12.408-28.896,19.24-46.44,19.24c-17.54,0-34.032-6.832-46.44-19.24
			c-25.604-25.604-25.604-67.272-0.072-92.804l94.136-92.548c16.94-16.936,26.268-39.456,26.268-63.412s-9.328-46.476-26.268-63.412
			c-34.96-34.964-91.856-34.964-126.82,0L294.22,94.614c-4.688,4.684-4.688,12.284,0,16.968c4.684,4.688,12.284,4.688,16.968,0
			l23.688-23.688c25.612-25.604,67.276-25.6,92.884,0c12.404,12.404,19.236,28.896,19.236,46.44
			c0,17.544-6.832,34.036-19.164,46.368l-94.136,92.548c-16.936,16.936-26.264,39.456-26.264,63.408
			c0,23.96,9.328,46.48,26.264,63.412c17.48,17.484,40.444,26.224,63.408,26.224c22.964,0,45.928-8.74,63.408-26.224
			c4.688-4.684,4.688-12.284,0-16.968C455.828,378.414,448.228,378.414,443.544,383.102z"/>
	</g>
</g>
<g>
	<g>
		<path d="M312.78,98.31c-50.3-50.304-132.152-50.304-182.46,0l-92.672,92.676C13.372,215.261,0,247.662,0,282.217
			c0,34.556,13.372,66.956,37.644,91.232c0.004,0,0.004,0,0.004,0c25.152,25.152,58.188,37.728,91.228,37.728
			c33.04,0,66.08-12.576,91.232-37.728l92.672-92.68C363.088,230.466,363.088,148.613,312.78,98.31z M295.808,263.805
			l-92.672,92.676c-40.948,40.948-107.572,40.944-148.52,0C34.876,336.734,24,310.362,24,282.217
			c0-28.144,10.872-54.512,30.62-74.26l92.668-92.672c40.944-40.94,107.572-40.944,148.52,0c19.744,19.744,30.62,46.116,30.62,74.26
			C326.428,217.69,315.556,244.058,295.808,263.805z"/>
	</g>
</g>
<g>
	<g>
		<rect x="185.055" y="190.15" transform="matrix(0.707 -0.7072 0.7072 0.707 -77.0821 210.2438)" width="60.279" height="16"/>
	</g>
</g>
<g>
	<g>
		<rect x="270.128" y="111.18" transform="matrix(0.707 -0.7072 0.7072 0.707 1.8852 242.9093)" width="47.948" height="16"/>
	</g>
</g>
<g>
	<g>
		<rect x="191.501" y="92.323" transform="matrix(0.7071 -0.7071 0.7071 0.7071 -92.7565 203.6929)" width="16" height="242.982"/>
	</g>
</g>
<g>
	<g>
		<path d="M295.612,139.761l-22.068-22.068c-3.124-3.124-8.192-3.124-11.312,0l-46.336,46.332c-3.124,3.124-3.124,8.188,0,11.312
			l22.064,22.068c1.5,1.5,3.532,2.344,5.656,2.344c2.12,0,4.156-0.844,5.656-2.344l46.34-46.332c1.5-1.5,2.344-3.536,2.344-5.656
			S297.112,141.261,295.612,139.761z M243.62,180.441l-10.752-10.756l35.024-35.02l10.752,10.752L243.62,180.441z"/>
	</g>
</g>
</svg>