<?xml version="1.0" ?>
<!DOCTYPE svg  PUBLIC '-//W3C//DTD SVG 1.1//EN'  'http://www.w3.org/Graphics/SVG/1.1/DTD/svg11.dtd'>
<!-- Uploaded to: SVG Repo, www.svgrepo.com, Generator: SVG Repo Mixer Tools -->
<svg fill="#000000" width="800px" height="800px" viewBox="0 0 32 32" style="fill-rule:evenodd;clip-rule:evenodd;stroke-linejoin:round;stroke-miterlimit:2;" version="1.1" xml:space="preserve" xmlns="http://www.w3.org/2000/svg" xmlns:serif="http://www.serif.com/" xmlns:xlink="http://www.w3.org/1999/xlink">
<g transform="matrix(1,0,0,1,-432,-144)">
<g transform="matrix(2,0,0,1.89474,-448,-44.2632)">
<path d="M452,106L452,112.556L444,112.556L444,106C444,103.792 445.792,102 448,102C450.208,102 452,103.792 452,106Z" style="fill:rgb(144,224,239);"/>
</g>
<g transform="matrix(1,0,0,1,0,45)">
<path d="M451,125C451,126.656 449.656,128 448,128C446.344,128 445,126.656 445,125" style="fill:rgb(144,224,239);"/>
</g>
<g transform="matrix(1,0,0,1,-1,-1)">
<circle cx="460" cy="149" r="2" style="fill:rgb(144,224,239);"/>
</g>
<path d="M447,148.052C442.491,148.528 439,152.18 439,156.579L439,168L438,168C437.448,168 437,168.448 437,169C437,169.552 437.448,170 438,170L444,170L444,170.013C444.001,170.217 444.017,170.42 444.048,170.621C444.098,170.942 444.188,171.257 444.315,171.556C444.507,172.012 444.786,172.43 445.13,172.785C445.463,173.128 445.857,173.411 446.288,173.616C446.66,173.792 447.058,173.91 447.466,173.965C447.903,174.023 448.349,174.009 448.781,173.924C449.154,173.85 449.516,173.722 449.853,173.545C450.251,173.337 450.613,173.061 450.92,172.733C451.222,172.41 451.47,172.038 451.651,171.634C451.793,171.32 451.893,170.987 451.948,170.646C451.982,170.437 451.999,170.225 452,170.013L452,170L458,170C458.552,170 459,169.552 459,169C459,168.448 458.552,168 458,168L457,168L457,156.579C457,152.18 453.509,148.528 449,148.052L449,147C449,146.448 448.552,146 448,146C447.448,146 447,146.448 447,147L447,148.052ZM446,170C446,171.104 446.896,172 448,172C449.104,172 450,171.104 450,170L446,170ZM455,168L441,168C441,168 441,156.579 441,156.579C441,152.933 444.151,150 448,150C451.849,150 455,152.933 455,156.579L455,168ZM459,145C457.344,145 456,146.344 456,148C456,149.656 457.344,151 459,151C460.656,151 462,149.656 462,148C462,146.344 460.656,145 459,145ZM459,147C459.552,147 460,147.448 460,148C460,148.552 459.552,149 459,149C458.448,149 458,148.552 458,148C458,147.448 458.448,147 459,147Z" style="fill:rgb(25,144,167);"/>
</g>
</svg>