<?xml version="1.0" ?>
<!DOCTYPE svg  PUBLIC '-//W3C//DTD SVG 1.1//EN'  'http://www.w3.org/Graphics/SVG/1.1/DTD/svg11.dtd'>
<!-- Uploaded to: SVG Repo, www.svgrepo.com, Generator: SVG Repo Mixer Tools -->
<svg fill="#000000" width="800px" height="800px" viewBox="0 0 32 32" style="fill-rule:evenodd;clip-rule:evenodd;stroke-linejoin:round;stroke-miterlimit:2;" version="1.1" xml:space="preserve" xmlns="http://www.w3.org/2000/svg" xmlns:serif="http://www.serif.com/" xmlns:xlink="http://www.w3.org/1999/xlink">
<g transform="matrix(1,0,0,1,-96,-432)">
<g transform="matrix(0.8,0,0,0.888889,62,140.869)">
<path d="M55,350.125C55,349.504 54.44,349 53.75,349C52.986,349 52.014,349 51.25,349C50.56,349 50,349.504 50,350.125C50,351.854 50,355.146 50,356.875C50,357.496 50.56,358 51.25,358C52.014,358 52.986,358 53.75,358C54.44,358 55,357.496 55,356.875C55,355.146 55,351.854 55,350.125Z" style="fill:rgb(144,224,239);"/>
</g>
<g transform="matrix(-0.8,0,0,0.888889,162,140.869)">
<path d="M55,350.125C55,349.504 54.44,349 53.75,349C52.986,349 52.014,349 51.25,349C50.56,349 50,349.504 50,350.125C50,351.854 50,355.146 50,356.875C50,357.496 50.56,358 51.25,358C52.014,358 52.986,358 53.75,358C54.44,358 55,357.496 55,356.875C55,355.146 55,351.854 55,350.125Z" style="fill:rgb(144,224,239);"/>
</g>
<g transform="matrix(0.96,0,0,1.6,4.88,-271.8)">
<path d="M101.167,453L99.083,453C98.531,453 98.001,453.132 97.61,453.366C97.219,453.601 97,453.918 97,454.25C97,454.415 97,454.585 97,454.75C97,455.082 97.219,455.399 97.61,455.634C98.001,455.868 98.531,456 99.083,456C100.125,456 101.167,456 101.167,456L101.167,453Z" style="fill:rgb(144,224,239);"/>
</g>
<g transform="matrix(-0.96,0,0,1.6,219.12,-271.8)">
<path d="M101.167,453L99.083,453C98.531,453 98.001,453.132 97.61,453.366C97.219,453.601 97,453.918 97,454.25C97,454.415 97,454.585 97,454.75C97,455.082 97.219,455.399 97.61,455.634C98.001,455.868 98.531,456 99.083,456C100.125,456 101.167,456 101.167,456L101.167,453Z" style="fill:rgb(144,224,239);"/>
</g>
<path d="M98.984,452.086C98.572,452.234 98.194,452.472 97.879,452.788C97.316,453.35 97,454.113 97,454.909C97,455.173 97,455.444 97,455.709C97,456.505 97.316,457.268 97.879,457.83C98.441,458.393 99.204,458.709 100,458.709L101.129,458.709C101.415,459.464 102.145,460 103,460L105,460C106.105,460 107,459.105 107,458L107,452C107,450.895 106.105,450 105,450L103,450C101.926,450 101.05,450.847 101.002,451.909L100.986,451.909L100.988,451.626L100.995,451.557C100.998,451.548 101,451.54 101,451.533L101,448C101,441.929 105.929,437 112,437C118.071,437 123,441.929 123,448L123,449.905L122.987,451.767C122.871,450.772 122.026,450 121,450L119,450C117.895,450 117,450.895 117,452L117,458C117,459.105 117.895,460 119,460L121,460C121.855,460 122.585,459.464 122.871,458.709L124,458.709C124.796,458.709 125.559,458.393 126.121,457.83C126.684,457.268 127,456.505 127,455.709C127,455.444 127,455.173 127,454.909C127,454.113 126.684,453.35 126.121,452.788C125.798,452.464 125.408,452.222 124.984,452.075L124.988,451.626L124.995,451.557C124.998,451.548 125,451.54 125,451.533L125,448C125,440.881 119.265,435.091 112.168,435.001L112,435C104.825,435 99,440.825 99,448L99,449.905L98.984,452.086ZM103,452L103,458L105,458L105,452L103,452ZM121,452L121,458L119,458L119,452L121,452ZM123,453.909L124,453.909C124.265,453.909 124.52,454.014 124.707,454.202C124.895,454.389 125,454.644 125,454.909L125,455.709C125,455.974 124.895,456.229 124.707,456.416C124.52,456.604 124.265,456.709 124,456.709C124,456.709 123,456.709 123,456.709L123,453.909ZM101,453.909L101,456.709L100,456.709C99.735,456.709 99.48,456.604 99.293,456.416C99.105,456.229 99,455.974 99,455.709L99,454.909C99,454.644 99.105,454.389 99.293,454.202C99.48,454.014 99.735,453.909 100,453.909L101,453.909Z" style="fill:rgb(25,144,167);"/>
</g>
</svg>