<?xml version="1.0" encoding="iso-8859-1"?>
<!-- Uploaded to: SVG Repo, www.svgrepo.com, Generator: SVG Repo Mixer Tools -->
<svg version="1.1" id="Layer_1" xmlns="http://www.w3.org/2000/svg" xmlns:xlink="http://www.w3.org/1999/xlink" 
	 viewBox="0 0 512 512" xml:space="preserve">
<path d="M445.512,382.504H66.488C29.92,382.504,0,352.576,0,316.008V79.92c0-36.568,29.92-66.488,66.488-66.488h379.024
	C482.08,13.432,512,43.352,512,79.92v236.088C512,352.576,482.08,382.504,445.512,382.504z"/>
<rect y="86.128" style="fill:#FFFFFF;" width="512" height="85.336"/>
<polygon style="fill:#32BEA6;" points="236.04,346.328 150.144,261.696 64.248,346.328 101.112,346.328 101.112,461.992 
	199.176,461.992 199.176,346.328 "/>
<polygon style="fill:#13B7E6;" points="275.96,413.936 361.856,498.568 447.752,413.936 410.888,413.936 410.888,298.264 
	312.824,298.264 312.824,413.936 "/>
</svg>